<?xml version="1.0" encoding="utf-8"?>
<!-- Generator: Adobe Illustrator 27.5.0, SVG Export Plug-In . SVG Version: 6.00 Build 0)  -->
<svg version="1.1" xmlns="http://www.w3.org/2000/svg" xmlns:xlink="http://www.w3.org/1999/xlink" x="0px" y="0px"
	 viewBox="0 0 500 500" style="enable-background:new 0 0 500 500;" xml:space="preserve">
<g id="Background_Simple">
	<g>
		<path style="fill:#92E3A9;" d="M408.598,90.744c-5.683-7.717-12.079-14.674-19.178-20.638
			c-70.119-58.913-168.06-80.219-235.805-5.454c-33.589,37.069-50.478,91.864-72.675,138.633
			c-18.053,38.036-76.079,72.191-69.631,152.921c6.447,80.73,72.21,74.52,105.737,100.912
			c33.526,26.393,106.381,44.246,191.486,21.735c85.105-22.511,94.131-38.036,127.013-49.68
			c32.881-11.644,65.118-59.77,41.909-122.645c-8.715-23.611-19.684-46.454-26.521-71.008
			C437.487,187.241,437.951,130.608,408.598,90.744z"/>
		<path style="opacity:0.7;fill:#FFFFFF;" d="M408.598,90.744c-5.683-7.717-12.079-14.674-19.178-20.638
			c-70.119-58.913-168.06-80.219-235.805-5.454c-33.589,37.069-50.478,91.864-72.675,138.633
			c-18.053,38.036-76.079,72.191-69.631,152.921c6.447,80.73,72.21,74.52,105.737,100.912
			c33.526,26.393,106.381,44.246,191.486,21.735c85.105-22.511,94.131-38.036,127.013-49.68
			c32.881-11.644,65.118-59.77,41.909-122.645c-8.715-23.611-19.684-46.454-26.521-71.008
			C437.487,187.241,437.951,130.608,408.598,90.744z"/>
	</g>
</g>
<g id="Sun">
	<g>
		<circle style="fill:#92E3A9;stroke:#263238;stroke-miterlimit:10;" cx="44.722" cy="92.451" r="18.128"/>
		<line style="fill:none;stroke:#263238;stroke-miterlimit:10;" x1="44.722" y1="60.907" x2="44.722" y2="69.609"/>
		<line style="fill:none;stroke:#263238;stroke-miterlimit:10;" x1="44.722" y1="115.292" x2="44.722" y2="123.994"/>
		<line style="fill:none;stroke:#263238;stroke-miterlimit:10;" x1="76.265" y1="92.451" x2="67.563" y2="92.451"/>
		<line style="fill:none;stroke:#263238;stroke-miterlimit:10;" x1="21.88" y1="92.451" x2="13.178" y2="92.451"/>
		<line style="fill:none;stroke:#263238;stroke-miterlimit:10;" x1="67.026" y1="70.146" x2="60.873" y2="76.299"/>
		<line style="fill:none;stroke:#263238;stroke-miterlimit:10;" x1="28.57" y1="108.602" x2="22.417" y2="114.755"/>
		<line style="fill:none;stroke:#263238;stroke-miterlimit:10;" x1="22.417" y1="70.146" x2="28.57" y2="76.299"/>
		<line style="fill:none;stroke:#263238;stroke-miterlimit:10;" x1="60.873" y1="108.602" x2="67.026" y2="114.755"/>
	</g>
</g>
<g id="Clouds">
	<g>
		<path style="fill:none;stroke:#263238;stroke-miterlimit:10;" d="M159.501,98.983c-4.559,6.015-3.915,12.839-6.463,14.877
			c-4.068,3.254-13.017-7.322-21.152-4.068c-8.135,3.254-8.949,10.576-13.017,13.017c-4.068,2.441-8.949-3.254-16.271-2.441
			c-7.322,0.813-12.203,8.949-12.203,8.949H70.057h331.11c0,0-8.135-14.644-25.22-26.847c-17.084-12.203-30.915-6.508-38.236-3.254
			c-7.322,3.254-9.763-2.441-9.763-2.441s-3.608-4.433-10.091-10.143"/>
		<path style="fill:none;stroke:#263238;stroke-miterlimit:10;" d="M309.792,80.131c-12.256-9.018-30-18.337-50.994-18.337
			c-40.677,0-33.355,32.542-46.372,39.05c-13.017,6.508-15.457-15.457-37.423-10.576c-4.105,0.912-7.3,2.193-9.81,3.696"/>
		<path style="fill:none;stroke:#263238;stroke-miterlimit:10;" d="M83.201,27.135c-2.352,4.313-3.039,9.018-6.175,10.586
			c-6.273,3.137-7.449-7.449-18.035-5.097c-10.586,2.352-8.625,9.802-10.586,11.37c-1.96,1.568-6.273-3.529-10.194-1.96
			c-3.921,1.568-4.313,5.097-6.273,6.273c-1.96,1.176-4.313-1.568-7.841-1.176c-3.529,0.392-5.881,4.313-5.881,4.313H8.415h159.571
			c0,0-3.921-7.057-12.154-12.938s-14.898-3.137-18.427-1.568c-3.529,1.568-4.705-1.176-4.705-1.176s-13.722-16.859-33.326-16.859
			c-4.901,0-8.356,0.98-10.88,2.5"/>
		<path style="fill:none;stroke:#263238;stroke-miterlimit:10;" d="M431.927,37.207c-3.622-2.643-8.828-5.345-14.977-5.345
			c-12.034,0-9.867,9.627-13.718,11.552c-3.851,1.925-4.573-4.573-11.071-3.129c-6.498,1.444-5.295,6.017-6.498,6.979
			c-1.203,0.963-3.851-2.166-6.258-1.203c-2.407,0.963-2.647,3.129-3.851,3.851c-1.203,0.722-2.647-0.963-4.813-0.722
			c-2.166,0.241-3.61,2.647-3.61,2.647h-6.017h97.954c0,0-2.407-4.332-7.461-7.942c-5.054-3.61-9.146-1.925-11.311-0.963
			c-2.166,0.963-2.888-0.722-2.888-0.722"/>
	</g>
</g>
<g id="Dam">
	<g>
		<path style="fill:#92E3A9;" d="M110.587,273.885c3.399,3.282,6.835,6.645,8.865,8.638c1.655,0.674,2.408,1.291,1.836,1.806
			c-1.14,1.026-12.515,2.695-28.252,4.615c-25.283,3.908-61.687,8.95-83.892,9.421l-0.907,60.765l122.899-54.815l76.318-30.431
			H110.587z"/>
		<path style="fill:none;stroke:#263238;stroke-miterlimit:10;" d="M35.746,178.099c15.342,7.057,47.16,18.016,97.289,18.35
			c74.107,0.494,99.797-18.28,124.993-18.774c25.196-0.494,119.065,38.041,119.065,38.041"/>
		<path style="fill:none;stroke:#263238;stroke-miterlimit:10;" d="M24.839,172.241c0,0,2.08,1.447,6.33,3.634"/>
		<line style="fill:none;stroke:#263238;stroke-miterlimit:10;" x1="53.787" y1="184.709" x2="49.956" y2="248.652"/>
		<line style="fill:none;stroke:#263238;stroke-miterlimit:10;" x1="185.45" y1="193.542" x2="207.456" y2="273.885"/>
		<path style="fill:#FFFFFF;stroke:#263238;stroke-miterlimit:10;" d="M76.349,197.284c0,0,38.68,7.294,74.928,3.979l0.663,8.178
			c0,0-32.27,5.084-74.928-3.536L76.349,197.284z"/>
		<g>
			<path style="fill:#92E3A9;" d="M101.728,265.546c1.989,1.741,5.972,5.543,9.827,9.275l47.75,1.156l-7.608-71.2
				c-43.89,5.245-74.53-3.312-74.53-3.312l0.427,56.961C88.118,260.906,98.624,262.83,101.728,265.546z"/>
			<line style="fill:none;stroke:#263238;stroke-miterlimit:10;" x1="86.181" y1="205.274" x2="87.804" y2="243.163"/>
			<line style="fill:none;stroke:#263238;stroke-miterlimit:10;" x1="91.052" y1="205.544" x2="92.135" y2="215.558"/>
			<line style="fill:none;stroke:#263238;stroke-miterlimit:10;" x1="111.891" y1="206.627" x2="113.515" y2="230.173"/>
			<line style="fill:none;stroke:#263238;stroke-miterlimit:10;" x1="119.469" y1="221.783" x2="121.364" y2="243.434"/>
			<line style="fill:none;stroke:#263238;stroke-miterlimit:10;" x1="131.918" y1="206.898" x2="132.189" y2="220.159"/>
			<line style="fill:none;stroke:#263238;stroke-miterlimit:10;" x1="143.014" y1="206.356" x2="145.18" y2="228.007"/>
			<line style="fill:none;stroke:#263238;stroke-miterlimit:10;" x1="140.756" y1="255.061" x2="141.391" y2="262.92"/>
			<line style="fill:none;stroke:#263238;stroke-miterlimit:10;" x1="137.872" y1="219.347" x2="140.417" y2="250.859"/>
			<line style="fill:none;stroke:#263238;stroke-miterlimit:10;" x1="97.024" y1="255.36" x2="97.277" y2="260.213"/>
			<line style="fill:none;stroke:#263238;stroke-miterlimit:10;" x1="95.653" y1="229.09" x2="96.804" y2="251.161"/>
			<line style="fill:none;stroke:#263238;stroke-miterlimit:10;" x1="111.62" y1="246.952" x2="112.974" y2="262.649"/>
		</g>
		<g>
			<path style="fill:#FFFFFF;stroke:#263238;stroke-miterlimit:10;" d="M78.459,223.674l-0.248-32.484L74.4,190.43l0.575,32.713
				C76.064,223.317,77.227,223.495,78.459,223.674z"/>
			<path style="fill:#FFFFFF;stroke:#263238;stroke-miterlimit:10;" d="M155.209,226.435l-2.687-30.118l-3.241-0.081l2.487,30.394
				C152.906,226.571,154.054,226.505,155.209,226.435z"/>
			<path style="fill:#FFFFFF;stroke:#263238;stroke-miterlimit:10;" d="M127.237,227.192l-1.311-30.874l-3.241-0.081l1.094,30.917
				C124.917,227.171,126.072,227.183,127.237,227.192z"/>
			<path style="fill:#FFFFFF;stroke:#263238;stroke-miterlimit:10;" d="M103.306,226.295l-1.198-31.421l-3.408-0.501l1.121,31.666
				C100.959,226.128,102.122,226.213,103.306,226.295z"/>
		</g>
		<line style="fill:none;stroke:#263238;stroke-miterlimit:10;" x1="110.587" y1="274.016" x2="207.456" y2="274.016"/>
		<path style="fill:none;stroke:#263238;stroke-miterlimit:10;" d="M11.752,234.794c0,0,38.724,14.806,51.822,19.647
			c13.098,4.841,33.599,7.118,38.155,11.105s19.561,18.784,19.561,18.784S45.833,297.588,9.145,298.366"/>
		<g>
			<path style="fill:none;stroke:#263238;stroke-miterlimit:10;" d="M123.404,281.093c0,0,14.451,1.41,13.041,3.525
				c-1.41,2.115-15.508,4.582-15.508,4.582"/>
			<path style="fill:none;stroke:#263238;stroke-miterlimit:10;" d="M57.045,302.453c-10.174,1.97-19.924,3.797-27.397,5.075"/>
			<path style="fill:none;stroke:#263238;stroke-miterlimit:10;" d="M112.477,291.315c0,0-25.146,5.219-49.801,10.042"/>
			<path style="fill:none;stroke:#263238;stroke-miterlimit:10;" d="M147.723,281.445c0,0,7.754,1.41,4.582,3.877
				c-3.172,2.467-13.394,4.935-13.394,4.935"/>
			<line style="fill:none;stroke:#263238;stroke-miterlimit:10;" x1="110.391" y1="304.387" x2="101.551" y2="307.175"/>
			<line style="fill:none;stroke:#263238;stroke-miterlimit:10;" x1="147.371" y1="292.724" x2="115.284" y2="302.844"/>
		</g>
	</g>
</g>
<g id="Floor_2">
	<g>
		<path style="fill:none;stroke:#263238;stroke-miterlimit:10;" d="M480.751,201.318c-46.096,2.582-118.827,12.829-207.561,46.557
			C124.083,304.552,72.024,330.794,7.615,359.955"/>
		<path style="fill:none;stroke:#263238;stroke-miterlimit:10;" d="M493.535,200.765c-2.193,0.066-4.467,0.15-6.819,0.254"/>
	</g>
</g>
<g id="Pathway">
	<path style="fill:#FFFFFF;stroke:#263238;stroke-linejoin:round;stroke-miterlimit:10;" d="M443.536,204.861l-30.619,4.375
		c0,0,45.441,1.356,45.441,29.842c0,28.485-28.485,37.98-101.733,54.258c-73.248,16.277-154.379,33.935-242.125,70.535
		c-33.041,13.782-74.057,33.767-107.095,45.378v7.849c39.863-18.486,136.533-61.554,214.933-82.39
		c150.565-40.015,221.779-38.659,252.299-59.005C505.155,255.356,484.908,205.54,443.536,204.861z"/>
</g>
<g id="Trees_2">
	<g>
		<polyline style="fill:none;stroke:#263238;stroke-linejoin:round;stroke-miterlimit:10;" points="231.042,242.502 
			237.958,251.948 239.054,242.216 		"/>
		<polygon style="fill:#263238;" points="238.458,251.966 239,261.589 236.15,262.638 237.459,251.93 		"/>
		
			<line style="fill:none;stroke:#263238;stroke-linejoin:round;stroke-miterlimit:10;" x1="230.743" y1="252.344" x2="237.497" y2="256.707"/>
		
			<line style="fill:none;stroke:#263238;stroke-linejoin:round;stroke-miterlimit:10;" x1="238.592" y1="246.975" x2="242.24" y2="242.653"/>
		<path style="fill:#92E3A9;" d="M249.087,230.505c0,0-2.151-9.059-8.5-9.759c-6.35-0.701-6.796,5.853-8.382,8.35
			c-1.586,2.497-4.717-0.647-7.297,1.261c-2.58,1.908-2.354,3.974-2.354,3.974s-5.894,1.341-5.038,7.056
			c0.856,5.715,1.746,7.477,6.313,6.746s9.91-7.123,14.623-4.385c4.713,2.738,9.865,3.105,11.86,0.099
			c1.995-3.006-1.754-3.294-0.627-5.74C250.811,235.661,257.369,234.016,249.087,230.505z"/>
		<path style="opacity:0.26;" d="M248.957,238.548c0,0-2.151-9.059-8.5-9.759c-6.35-0.701-6.796,5.853-8.382,8.35
			c-1.586,2.497-4.717-0.647-7.297,1.262c-2.58,1.908-2.354,3.974-2.354,3.974s-2.663,0.614-4.148,2.751
			c0.831,2.729,2.199,3.544,5.552,3.007c4.567-0.731,9.91-7.123,14.623-4.385c4.713,2.738,9.865,3.105,11.86,0.099
			c1.793-2.702-1.043-3.212-0.819-5.063C249.318,238.706,249.145,238.628,248.957,238.548z"/>
		<path style="fill:#92E3A9;" d="M233.567,250.09c0,0-4.434-2.304-6.299-0.242c-1.866,2.062-4.341,2.797-2.763,4.484
			c1.578,1.686,3.164-0.81,4.822-0.526c1.657,0.284,4.054,0.951,4.822-0.526C234.916,251.801,233.567,250.09,233.567,250.09z"/>
		<path style="opacity:0.26;" d="M233.567,250.09c0,0-4.434-2.304-6.299-0.242c-1.866,2.062-4.341,2.797-2.763,4.484
			c1.578,1.686,3.164-0.81,4.822-0.526c1.657,0.284,4.054,0.951,4.822-0.526C234.916,251.801,233.567,250.09,233.567,250.09z"/>
	</g>
	<g>
		<polyline style="fill:none;stroke:#263238;stroke-linejoin:round;stroke-miterlimit:10;" points="404.077,190.114 410.993,199.56 
			412.089,189.828 		"/>
		<polygon style="fill:#263238;" points="411.493,199.578 412.035,209.201 409.185,210.25 410.494,199.542 		"/>
		
			<line style="fill:none;stroke:#263238;stroke-linejoin:round;stroke-miterlimit:10;" x1="403.778" y1="199.956" x2="410.532" y2="204.319"/>
		
			<line style="fill:none;stroke:#263238;stroke-linejoin:round;stroke-miterlimit:10;" x1="411.628" y1="194.587" x2="415.275" y2="190.265"/>
		<path style="fill:#92E3A9;" d="M422.122,178.117c0,0-2.151-9.059-8.5-9.759c-6.35-0.701-6.796,5.853-8.382,8.35
			s-4.717-0.647-7.297,1.261c-2.58,1.908-2.354,3.974-2.354,3.974s-5.894,1.341-5.038,7.056c0.856,5.715,1.746,7.477,6.313,6.746
			s9.91-7.123,14.623-4.385c4.713,2.738,9.865,3.105,11.86,0.099c1.995-3.006-1.754-3.294-0.627-5.74
			C423.846,183.273,430.404,181.628,422.122,178.117z"/>
		<path style="opacity:0.26;" d="M421.992,186.16c0,0-2.151-9.059-8.5-9.759c-6.35-0.701-6.796,5.853-8.382,8.35
			c-1.586,2.496-4.717-0.647-7.297,1.261c-2.58,1.908-2.354,3.974-2.354,3.974s-2.663,0.614-4.148,2.751
			c0.831,2.729,2.199,3.544,5.552,3.007c4.567-0.731,9.91-7.123,14.623-4.385c4.713,2.738,9.865,3.105,11.86,0.099
			c1.793-2.702-1.043-3.212-0.82-5.063C422.353,186.318,422.181,186.24,421.992,186.16z"/>
		<path style="fill:#92E3A9;" d="M406.602,197.702c0,0-4.434-2.304-6.299-0.242c-1.866,2.062-4.341,2.797-2.763,4.484
			c1.578,1.686,3.164-0.81,4.822-0.526c1.657,0.284,4.054,0.951,4.822-0.526C407.951,199.413,406.602,197.702,406.602,197.702z"/>
		<path style="opacity:0.26;" d="M406.602,197.702c0,0-4.434-2.304-6.299-0.242c-1.866,2.062-4.341,2.797-2.763,4.484
			c1.578,1.686,3.164-0.81,4.822-0.526c1.657,0.284,4.054,0.951,4.822-0.526C407.951,199.413,406.602,197.702,406.602,197.702z"/>
	</g>
	<g>
		<polyline style="fill:none;stroke:#263238;stroke-width:3;stroke-linejoin:round;stroke-miterlimit:10;" points="286.563,197.31 
			301.011,217.042 303.299,196.712 		"/>
		<polygon style="fill:#263238;" points="302.055,217.079 303.187,237.18 297.233,239.372 299.967,217.005 		"/>
		
			<line style="fill:none;stroke:#263238;stroke-width:3;stroke-linejoin:round;stroke-miterlimit:10;" x1="285.939" y1="217.868" x2="300.047" y2="226.982"/>
		
			<line style="fill:none;stroke:#263238;stroke-width:3;stroke-linejoin:round;stroke-miterlimit:10;" x1="302.335" y1="206.653" x2="309.955" y2="197.625"/>
		<path style="fill:#92E3A9;" d="M324.256,172.25c0,0-4.492-18.923-17.756-20.386c-13.264-1.464-14.196,12.227-17.509,17.442
			c-3.313,5.215-9.854-1.351-15.243,2.635c-5.389,3.986-4.917,8.302-4.917,8.302s-12.313,2.8-10.524,14.738
			c1.789,11.938,3.647,15.618,13.186,14.091c9.54-1.527,20.701-14.878,30.546-9.159c9.846,5.72,20.607,6.486,24.774,0.207
			c4.168-6.279-3.663-6.88-1.309-11.99C327.859,183.02,341.558,179.583,324.256,172.25z"/>
		<path style="opacity:0.26;" d="M323.985,189.051c0,0-4.492-18.923-17.756-20.386c-13.264-1.464-14.195,12.227-17.509,17.442
			c-3.313,5.215-9.854-1.351-15.243,2.635c-5.389,3.986-4.917,8.302-4.917,8.302s-5.562,1.282-8.665,5.747
			c1.735,5.701,4.593,7.403,11.598,6.282c9.54-1.527,20.7-14.878,30.546-9.159c9.846,5.72,20.607,6.486,24.774,0.207
			c3.746-5.643-2.179-6.71-1.712-10.576C324.74,189.38,324.379,189.218,323.985,189.051z"/>
		<path style="fill:#92E3A9;" d="M291.838,213.16c0,0-9.261-4.813-13.159-0.504c-3.898,4.308-9.068,5.843-5.772,9.366
			c3.296,3.523,6.61-1.692,10.072-1.1c3.462,0.593,8.468,1.987,10.072-1.1C294.655,216.735,291.838,213.16,291.838,213.16z"/>
		<path style="opacity:0.26;" d="M291.838,213.16c0,0-9.261-4.813-13.159-0.504c-3.898,4.308-9.068,5.843-5.772,9.366
			c3.296,3.523,6.61-1.692,10.072-1.1c3.462,0.593,8.468,1.987,10.072-1.1C294.655,216.735,291.838,213.16,291.838,213.16z"/>
	</g>
</g>
<g id="House">
	<g>
		<g>
			<polygon style="fill:#FFFFFF;stroke:#263238;stroke-linecap:round;stroke-linejoin:round;stroke-miterlimit:10;" points="
				316.321,184.673 316.321,233.008 362.693,219.636 362.693,170.001 			"/>
			<polygon style="fill:#263238;stroke:#263238;stroke-linecap:round;stroke-linejoin:round;stroke-miterlimit:10;" points="
				316.623,186.068 316.623,194.555 362.193,181.024 363.016,173.887 			"/>
			<polygon style="fill:#CCCCCC;stroke:#263238;stroke-linecap:round;stroke-linejoin:round;stroke-miterlimit:10;" points="
				362.693,167.064 380.746,158.229 394.199,174.59 394.199,212.772 362.693,219.636 			"/>
			<polygon style="fill:#92E3A9;stroke:#263238;stroke-linejoin:round;stroke-miterlimit:10;" points="325.414,174.057 
				303.385,193.359 359.911,176.603 383.759,155.935 			"/>
			<polygon style="fill:#92E3A9;stroke:#263238;stroke-linejoin:round;stroke-miterlimit:10;" points="383.759,155.935 
				400.452,182.167 394.33,183.417 379.472,159.502 			"/>
		</g>
		<polygon style="fill:#263238;stroke:#263238;stroke-linecap:round;stroke-linejoin:round;stroke-miterlimit:10;" points="
			320.846,193.225 320.846,203.302 326.838,201.483 326.838,191.489 		"/>
		<polygon style="fill:#263238;stroke:#263238;stroke-linecap:round;stroke-linejoin:round;stroke-miterlimit:10;" points="
			332.101,203.108 332.101,213.185 338.093,211.366 338.093,201.372 		"/>
		<polygon style="fill:#263238;stroke:#263238;stroke-linecap:round;stroke-linejoin:round;stroke-miterlimit:10;" points="
			362.193,181.024 380.036,165.651 394.036,187.613 394.33,183.417 379.472,159.502 363.016,173.887 		"/>
	</g>
</g>
<g id="Solar_Panels">
	<g>
		<g>
			
				<rect x="137.51" y="433.719" style="fill:#FFFFFF;stroke:#263238;stroke-linecap:round;stroke-linejoin:round;stroke-miterlimit:10;" width="7.064" height="20.016"/>
			
				<rect x="127.797" y="451.969" style="fill:#FFFFFF;stroke:#263238;stroke-linecap:round;stroke-linejoin:round;stroke-miterlimit:10;" width="22.959" height="1.766"/>
		</g>
		<g>
			<polygon style="fill:#FFFFFF;stroke:#263238;stroke-linecap:round;stroke-linejoin:round;stroke-miterlimit:10;" points="
				109.126,445.341 165.43,445.171 180.466,407.346 125.771,407.511 			"/>
			<polygon style="fill:#92E3A9;stroke:#263238;stroke-linecap:round;stroke-linejoin:round;stroke-miterlimit:10;" points="
				113.663,442.303 162.179,442.157 174.818,410.733 127.547,410.875 			"/>
			
				<line style="fill:none;stroke:#263238;stroke-linecap:round;stroke-linejoin:round;stroke-miterlimit:10;" x1="149.644" y1="410.65" x2="137.381" y2="442.008"/>
			
				<line style="fill:none;stroke:#263238;stroke-linecap:round;stroke-linejoin:round;stroke-miterlimit:10;" x1="125.078" y1="441.592" x2="137.826" y2="410.991"/>
			
				<line style="fill:none;stroke:#263238;stroke-linecap:round;stroke-linejoin:round;stroke-miterlimit:10;" x1="150.519" y1="441.976" x2="162.999" y2="410.926"/>
			
				<line style="fill:none;stroke:#263238;stroke-linecap:round;stroke-linejoin:round;stroke-miterlimit:10;" x1="123.344" y1="420.425" x2="170.884" y2="420.281"/>
			
				<line style="fill:none;stroke:#263238;stroke-linecap:round;stroke-linejoin:round;stroke-miterlimit:10;" x1="118.874" y1="431.482" x2="166.415" y2="431.339"/>
		</g>
	</g>
	<g>
		<g>
			
				<rect x="218.481" y="433.719" style="fill:#FFFFFF;stroke:#263238;stroke-linecap:round;stroke-linejoin:round;stroke-miterlimit:10;" width="7.064" height="20.016"/>
			
				<rect x="208.768" y="451.969" style="fill:#FFFFFF;stroke:#263238;stroke-linecap:round;stroke-linejoin:round;stroke-miterlimit:10;" width="22.959" height="1.766"/>
		</g>
		<g>
			<polygon style="fill:#FFFFFF;stroke:#263238;stroke-linecap:round;stroke-linejoin:round;stroke-miterlimit:10;" points="
				190.098,445.341 246.401,445.171 261.437,407.346 206.742,407.511 			"/>
			<polygon style="fill:#92E3A9;stroke:#263238;stroke-linecap:round;stroke-linejoin:round;stroke-miterlimit:10;" points="
				194.634,442.303 243.15,442.157 255.789,410.733 208.518,410.875 			"/>
			
				<line style="fill:none;stroke:#263238;stroke-linecap:round;stroke-linejoin:round;stroke-miterlimit:10;" x1="230.615" y1="410.65" x2="218.352" y2="442.008"/>
			
				<line style="fill:none;stroke:#263238;stroke-linecap:round;stroke-linejoin:round;stroke-miterlimit:10;" x1="206.049" y1="441.592" x2="218.797" y2="410.991"/>
			
				<line style="fill:none;stroke:#263238;stroke-linecap:round;stroke-linejoin:round;stroke-miterlimit:10;" x1="231.49" y1="441.976" x2="243.97" y2="410.926"/>
			
				<line style="fill:none;stroke:#263238;stroke-linecap:round;stroke-linejoin:round;stroke-miterlimit:10;" x1="204.315" y1="420.425" x2="251.855" y2="420.281"/>
			
				<line style="fill:none;stroke:#263238;stroke-linecap:round;stroke-linejoin:round;stroke-miterlimit:10;" x1="199.845" y1="431.482" x2="247.386" y2="431.339"/>
		</g>
	</g>
	<g>
		<g>
			
				<rect x="299.452" y="433.719" style="fill:#FFFFFF;stroke:#263238;stroke-linecap:round;stroke-linejoin:round;stroke-miterlimit:10;" width="7.064" height="20.016"/>
			
				<rect x="289.739" y="451.969" style="fill:#FFFFFF;stroke:#263238;stroke-linecap:round;stroke-linejoin:round;stroke-miterlimit:10;" width="22.959" height="1.766"/>
		</g>
		<g>
			<polygon style="fill:#FFFFFF;stroke:#263238;stroke-linecap:round;stroke-linejoin:round;stroke-miterlimit:10;" points="
				271.068,445.341 327.372,445.171 342.408,407.346 287.713,407.511 			"/>
			<polygon style="fill:#92E3A9;stroke:#263238;stroke-linecap:round;stroke-linejoin:round;stroke-miterlimit:10;" points="
				275.605,442.303 324.121,442.157 336.76,410.733 289.489,410.875 			"/>
			
				<line style="fill:none;stroke:#263238;stroke-linecap:round;stroke-linejoin:round;stroke-miterlimit:10;" x1="311.586" y1="410.65" x2="299.323" y2="442.008"/>
			
				<line style="fill:none;stroke:#263238;stroke-linecap:round;stroke-linejoin:round;stroke-miterlimit:10;" x1="287.02" y1="441.592" x2="299.768" y2="410.991"/>
			
				<line style="fill:none;stroke:#263238;stroke-linecap:round;stroke-linejoin:round;stroke-miterlimit:10;" x1="312.461" y1="441.976" x2="324.941" y2="410.926"/>
			
				<line style="fill:none;stroke:#263238;stroke-linecap:round;stroke-linejoin:round;stroke-miterlimit:10;" x1="285.286" y1="420.425" x2="332.826" y2="420.281"/>
			
				<line style="fill:none;stroke:#263238;stroke-linecap:round;stroke-linejoin:round;stroke-miterlimit:10;" x1="280.816" y1="431.482" x2="328.357" y2="431.339"/>
		</g>
	</g>
	<g>
		<g>
			
				<rect x="380.423" y="433.719" style="fill:#FFFFFF;stroke:#263238;stroke-linecap:round;stroke-linejoin:round;stroke-miterlimit:10;" width="7.064" height="20.016"/>
			
				<rect x="370.71" y="451.969" style="fill:#FFFFFF;stroke:#263238;stroke-linecap:round;stroke-linejoin:round;stroke-miterlimit:10;" width="22.959" height="1.766"/>
		</g>
		<g>
			<polygon style="fill:#FFFFFF;stroke:#263238;stroke-linecap:round;stroke-linejoin:round;stroke-miterlimit:10;" points="
				352.04,445.341 408.343,445.171 423.379,407.346 368.684,407.511 			"/>
			<polygon style="fill:#92E3A9;stroke:#263238;stroke-linecap:round;stroke-linejoin:round;stroke-miterlimit:10;" points="
				356.576,442.303 405.093,442.157 417.731,410.733 370.46,410.875 			"/>
			
				<line style="fill:none;stroke:#263238;stroke-linecap:round;stroke-linejoin:round;stroke-miterlimit:10;" x1="392.557" y1="410.65" x2="380.295" y2="442.008"/>
			
				<line style="fill:none;stroke:#263238;stroke-linecap:round;stroke-linejoin:round;stroke-miterlimit:10;" x1="367.991" y1="441.592" x2="380.739" y2="410.991"/>
			
				<line style="fill:none;stroke:#263238;stroke-linecap:round;stroke-linejoin:round;stroke-miterlimit:10;" x1="393.432" y1="441.976" x2="405.912" y2="410.926"/>
			
				<line style="fill:none;stroke:#263238;stroke-linecap:round;stroke-linejoin:round;stroke-miterlimit:10;" x1="366.257" y1="420.425" x2="413.797" y2="420.281"/>
			
				<line style="fill:none;stroke:#263238;stroke-linecap:round;stroke-linejoin:round;stroke-miterlimit:10;" x1="361.788" y1="431.482" x2="409.328" y2="431.339"/>
		</g>
	</g>
</g>
<g id="Floor_1">
	<line style="fill:none;stroke:#263238;stroke-miterlimit:10;" x1="6.506" y1="453.636" x2="495.428" y2="453.636"/>
</g>
<g id="Bushes">
	<g>
		<path style="fill:#92E3A9;" d="M439.242,312.41c0,0-4.832-11.811-18.253-12.348c-13.421-0.537-13.958,11.274-16.642,12.348
			c-2.684,1.074-7.516-2.684-11.274-2.147c-3.758,0.537-5.368,3.221-6.442,5.368c-1.074,2.147-0.537,0-5.368,1.074
			c-4.832,1.074-5.905,5.905-5.905,5.905h87.506c0,0,6.979-15.569-1.611-24.158c-8.59-8.59-17.179,1.074-18.253,4.295
			S439.242,312.41,439.242,312.41z"/>
		<path style="opacity:0.26;" d="M443,312.473c-1.074,3.221-3.758,9.663-3.758,9.663s-4.832-11.811-18.253-12.348
			c-13.421-0.537-13.958,11.274-16.642,12.348c-2.684,1.074-7.516-2.684-11.274-2.147c-2.201,0.314-3.654,1.372-4.705,2.621h74.495
			c0,0,1.407-3.148,2.18-7.39c-0.583-2.54-1.739-4.99-3.79-7.042C452.663,299.589,444.074,309.252,443,312.473z"/>
		<polygon style="fill:#263238;" points="398.744,322.413 393.241,315.316 401.206,322.413 418.44,321.689 419.744,307.062 
			420.757,321.833 447.694,321.978 454.935,307.931 450.591,322.268 		"/>
		<polyline style="fill:#263238;" points="452.618,314.303 461.742,311.551 450.446,317.634 445.522,311.551 449.143,319.806 		"/>
		<polygon style="fill:#263238;" points="419.744,314.882 427.13,311.117 419.599,316.33 		"/>
		<polygon style="fill:#263238;" points="418.73,319.082 411.054,315.606 418.44,321.689 		"/>
		<polygon style="fill:#263238;" points="398.165,320.385 399.179,314.448 399.758,321.833 		"/>
	</g>
	<g>
		<path style="fill:#92E3A9;" d="M249.198,348.378c0,0-2.147-12.347-9.663-9.126c-7.516,3.221-4.832,9.663-6.442,10.2
			c-1.611,0.537-10.737-4.832-11.811-2.147c-1.074,2.684,0.537,5.368,0.537,5.368s-5.905-2.147-6.979,1.611
			c-1.074,3.758-1.074,3.758-1.074,3.758h58.516c0,0,5.905-9.663,1.074-10.737c-4.832-1.074-10.2,2.147-11.811,1.074
			c-1.611-1.074,6.442-9.663,0-10.2C255.103,337.641,249.198,348.378,249.198,348.378z"/>
		<g style="opacity:0.26;">
			<path d="M271.177,353.049c-4.832-1.074-10.2,2.147-11.811,1.074c-0.872-0.582,1.089-3.368,2.047-5.886
				c-0.23-0.376,0.04-1.148,0.485-2.105c0.013-1.174-0.616-2.049-2.532-2.208c-6.442-0.537-12.347,10.2-12.347,10.2
				s-2.147-12.347-9.663-9.126c-1.607,0.689-2.745,1.525-3.561,2.419c-0.111,1.084-0.186,1.864-0.702,2.036
				c-0.146,0.049-0.372,0.035-0.63-0.003c-1.219,2.738-0.536,5.41-1.549,5.747c-1.146,0.382-6.086-2.214-9.234-2.784
				c0.083,0.167,0.139,0.26,0.139,0.26s-0.563-0.204-1.369-0.376c-0.663,0.03-1.146,0.25-1.347,0.752
				c-0.834,2.086-0.049,4.166,0.343,4.992h52.837c0,0,0.293-0.481,0.695-1.238C273.275,354.997,272.951,353.444,271.177,353.049z"/>
			<path d="M214.613,358.042h3.656C217.233,357.821,215.797,357.66,214.613,358.042z"/>
		</g>
		<polygon style="fill:#263238;" points="235.212,357.769 226.271,352.35 238.057,357.091 241.58,349.776 236.161,345.034 
			242.257,347.879 245.644,343.95 241.58,352.485 246.592,352.214 241.715,354.517 241.851,356.956 249.302,357.091 256.618,346.66 
			253.637,353.298 259.734,352.214 253.366,355.059 252.418,357.633 263.663,357.498 268.133,353.163 266.101,357.633 		"/>
	</g>
</g>
<g id="Windmills">
	<g>
		<polygon style="fill:#FFFFFF;stroke:#263238;stroke-linecap:round;stroke-linejoin:round;stroke-miterlimit:10;" points="
			462.961,202.723 462.141,129.71 458.577,129.71 457.705,203.024 		"/>
		<g>
			<path style="fill:#FFFFFF;stroke:#263238;stroke-linecap:round;stroke-linejoin:round;stroke-miterlimit:10;" d="
				M458.185,126.758c0,0-7.405-32.65-5.607-32.359c1.797,0.291,11.526,24.476,11.293,26.505c-0.233,2.029-3.54,5.565-3.54,5.565
				L458.185,126.758z"/>
			<path style="fill:#FFFFFF;stroke:#263238;stroke-linecap:round;stroke-linejoin:round;stroke-miterlimit:10;" d="M461.489,125.51
				c0,0,32.65-7.405,32.359-5.607c-0.291,1.797-24.476,11.526-26.505,11.293c-2.029-0.233-5.565-3.54-5.565-3.54L461.489,125.51z"/>
			<path style="fill:#FFFFFF;stroke:#263238;stroke-linecap:round;stroke-linejoin:round;stroke-miterlimit:10;" d="
				M458.717,126.201c0,0-32.303,8.797-31.202,10.247c1.101,1.45,27.022-1.319,28.704-2.478c1.682-1.159,3.25-5.739,3.25-5.739
				L458.717,126.201z"/>
			<path style="fill:#263238;" d="M463.922,127.345c-0.491-1.968-2.484-3.165-4.452-2.674c-1.968,0.491-3.165,2.484-2.675,4.452
				c0.491,1.968,2.484,3.166,4.452,2.675C463.216,131.306,464.413,129.313,463.922,127.345z"/>
		</g>
	</g>
	<g>
		<polygon style="fill:#FFFFFF;stroke:#263238;stroke-linecap:round;stroke-linejoin:round;stroke-miterlimit:10;" points="
			338.15,392.278 330.003,392.278 331.47,259.599 336.684,259.599 		"/>
		
			<rect x="325.971" y="388.248" style="fill:#FFFFFF;stroke:#263238;stroke-linecap:round;stroke-linejoin:round;stroke-miterlimit:10;" width="16.863" height="7.87"/>
		<g>
			<path style="fill:#FFFFFF;stroke:#263238;stroke-linecap:round;stroke-linejoin:round;stroke-miterlimit:10;" d="M330.897,255.28
				c0,0-10.833-47.769-8.204-47.344c2.63,0.426,16.863,35.81,16.522,38.779c-0.341,2.969-5.179,8.142-5.179,8.142L330.897,255.28z"
				/>
			<path style="fill:#FFFFFF;stroke:#263238;stroke-linecap:round;stroke-linejoin:round;stroke-miterlimit:10;" d="
				M335.731,253.454c0,0,47.769-10.833,47.343-8.204c-0.425,2.63-35.81,16.863-38.779,16.523c-2.969-0.341-8.141-5.18-8.141-5.18
				L335.731,253.454z"/>
			<path style="fill:#FFFFFF;stroke:#263238;stroke-linecap:round;stroke-linejoin:round;stroke-miterlimit:10;" d="
				M331.674,254.466c0,0-47.261,12.87-45.65,14.992c1.611,2.122,39.535-1.93,41.996-3.625c2.461-1.695,4.755-8.396,4.755-8.396
				L331.674,254.466z"/>
			<path style="fill:#263238;" d="M339.29,256.139c-0.718-2.879-3.635-4.631-6.514-3.913c-2.879,0.718-4.631,3.635-3.913,6.514
				c0.718,2.879,3.635,4.631,6.514,3.913C338.257,261.935,340.009,259.018,339.29,256.139z"/>
		</g>
	</g>
	<g>
		<polygon style="fill:#FFFFFF;stroke:#263238;stroke-linecap:round;stroke-linejoin:round;stroke-miterlimit:10;" points="
			254.516,267.128 246.696,267.128 248.103,139.779 253.108,139.779 		"/>
		
			<rect x="242.825" y="263.26" style="fill:#FFFFFF;stroke:#263238;stroke-linecap:round;stroke-linejoin:round;stroke-miterlimit:10;" width="16.186" height="7.554"/>
		<g>
			<path style="fill:#FFFFFF;stroke:#263238;stroke-linecap:round;stroke-linejoin:round;stroke-miterlimit:10;" d="
				M248.478,135.536c0,0-18.319-43.299-15.762-43.342c2.557-0.043,21.992,30.98,22.172,33.842c0.18,2.863-3.516,8.569-3.516,8.569
				L248.478,135.536z"/>
			<path style="fill:#FFFFFF;stroke:#263238;stroke-linecap:round;stroke-linejoin:round;stroke-miterlimit:10;" d="M253.41,134.053
				c0,0,46.046,9.495,44.63,11.624c-1.416,2.129-37.988,0.522-40.448-0.954c-2.459-1.477-5.059-7.758-5.059-7.758L253.41,134.053z"
				/>
			<path style="fill:#FFFFFF;stroke:#263238;stroke-linecap:round;stroke-linejoin:round;stroke-miterlimit:10;" d="
				M247.278,136.432c0,0-42.474,20.157-40.593,21.889c1.881,1.732,37.026-8.513,39.064-10.532c2.038-2.018,3.072-8.738,3.072-8.738
				L247.278,136.432z"/>
			<path style="fill:#263238;" d="M255.61,136.458c-0.689-2.763-3.489-4.445-6.252-3.756c-2.764,0.689-4.445,3.489-3.756,6.252
				c0.689,2.764,3.489,4.445,6.252,3.756C254.618,142.021,256.299,139.222,255.61,136.458z"/>
		</g>
	</g>
	<g>
		<polygon style="fill:#FFFFFF;stroke:#263238;stroke-linecap:round;stroke-linejoin:round;stroke-miterlimit:10;" points="
			400.398,223.94 393.328,223.94 394.601,108.803 399.125,108.803 		"/>
		
			<rect x="389.829" y="220.443" style="fill:#FFFFFF;stroke:#263238;stroke-linecap:round;stroke-linejoin:round;stroke-miterlimit:10;" width="14.634" height="6.829"/>
		<g>
			<path style="fill:#FFFFFF;stroke:#263238;stroke-linecap:round;stroke-linejoin:round;stroke-miterlimit:10;" d="
				M394.104,105.055c0,0-9.401-41.453-7.119-41.084c2.282,0.369,14.634,31.076,14.338,33.652c-0.296,2.577-4.495,7.065-4.495,7.065
				L394.104,105.055z"/>
			<path style="fill:#FFFFFF;stroke:#263238;stroke-linecap:round;stroke-linejoin:round;stroke-miterlimit:10;" d="
				M398.298,103.471c0,0,41.453-9.401,41.084-7.119c-0.369,2.282-31.075,14.634-33.652,14.338c-2.577-0.296-7.065-4.495-7.065-4.495
				L398.298,103.471z"/>
			<path style="fill:#FFFFFF;stroke:#263238;stroke-linecap:round;stroke-linejoin:round;stroke-miterlimit:10;" d="
				M394.778,104.349c0,0-41.012,11.168-39.614,13.009c1.398,1.841,34.308-1.675,36.444-3.146c2.136-1.471,4.127-7.286,4.127-7.286
				L394.778,104.349z"/>
			<path style="fill:#263238;" d="M401.387,105.801c-0.623-2.499-3.154-4.019-5.653-3.396c-2.499,0.623-4.019,3.154-3.396,5.653
				c0.623,2.499,3.154,4.019,5.653,3.396C400.49,110.83,402.01,108.299,401.387,105.801z"/>
		</g>
	</g>
	<g>
		<polygon style="fill:#FFFFFF;stroke:#263238;stroke-linecap:round;stroke-linejoin:round;stroke-miterlimit:10;" points="
			197.294,371.501 190.224,371.501 191.497,256.363 196.022,256.363 		"/>
		
			<rect x="186.725" y="368.003" style="fill:#FFFFFF;stroke:#263238;stroke-linecap:round;stroke-linejoin:round;stroke-miterlimit:10;" width="14.634" height="6.829"/>
		<g>
			<path style="fill:#FFFFFF;stroke:#263238;stroke-linecap:round;stroke-linejoin:round;stroke-miterlimit:10;" d="M191,252.616
				c0,0-9.401-41.453-7.119-41.084s14.634,31.076,14.338,33.652c-0.296,2.576-4.494,7.065-4.494,7.065L191,252.616z"/>
			<path style="fill:#FFFFFF;stroke:#263238;stroke-linecap:round;stroke-linejoin:round;stroke-miterlimit:10;" d="
				M195.195,251.031c0,0,41.453-9.401,41.084-7.119c-0.369,2.282-31.075,14.634-33.652,14.338c-2.577-0.296-7.065-4.495-7.065-4.495
				L195.195,251.031z"/>
			<path style="fill:#FFFFFF;stroke:#263238;stroke-linecap:round;stroke-linejoin:round;stroke-miterlimit:10;" d="
				M191.674,251.909c0,0-41.012,11.168-39.614,13.009c1.398,1.841,34.308-1.675,36.444-3.146c2.136-1.471,4.127-7.286,4.127-7.286
				L191.674,251.909z"/>
			<path style="fill:#263238;" d="M198.284,253.361c-0.623-2.499-3.154-4.019-5.653-3.396c-2.499,0.623-4.019,3.154-3.396,5.653
				c0.623,2.499,3.154,4.019,5.653,3.396C197.386,258.391,198.907,255.86,198.284,253.361z"/>
		</g>
	</g>
</g>
<g id="Trees_1">
	<g>
		<g>
			<g>
				<g>
					<path style="fill:#92E3A9;" d="M125.989,402.684c-0.077-0.728-0.181-1.393-0.315-1.961c-1.73-7.351-9.081-9.081-13.838-14.27
						c-2.607-2.844-2.231-8.291-3.919-15.05c0.388,0.104,0.669-0.143,0.739-0.977c0.227-2.726-4.028-8.377-6.086-10.938
						c-0.285-0.413-0.585-0.827-0.898-1.243c0.974,0.378,5.573,2.101,3.697,0.225c-2.092-2.092-8.667-5.746-8.667-5.746
						s10.759,0.067,5.379-2.025c-4.187-1.628-8.543-1.807-10.274-1.807c-0.186-0.12-0.373-0.234-0.56-0.351
						c0.712-1.198,2.707-5.015-0.823-5.015c-2.989,0-5.042,1.06-5.983,1.669c-0.114-0.043-0.228-0.09-0.343-0.132
						c0.699-1.603,2.465-6.112-0.25-5.124c-2.562,0.931-4.392,2.765-5.078,3.532c-0.109-0.025-0.216-0.046-0.325-0.071
						c-0.091-1.503-0.495-6.53-1.77-5.255c-1.171,1.171-2.704,3.436-3.315,4.365c-0.224-0.028-0.447-0.056-0.669-0.081
						c-1.513-1.867-6.903-8.217-7.673-4.882c-0.525,2.273-0.84,3.709-1.015,4.525c-0.397,0.012-0.781,0.027-1.153,0.044
						c-1.762-1.441-5.304-4.197-5.304-3.075c0,1.494-1.06,3.736-1.06,3.736s-5.814-5.828-6.711-4.035
						c-0.744,1.487-0.869,3.162-0.89,3.697c-0.134,0.007-0.272,0.008-0.405,0.016c-1.615-0.695-7.671-3.214-7.671-1.919
						c0,0.934,0.35,2.218,0.613,3.05c-0.417,0.112-0.824,0.236-1.23,0.362c-2.541-0.762-7.375-2.047-7.154-0.722
						c0.299,1.793,0.299,1.793,0.299,1.793s-2.918-2.066-7.7,0.325c-4.782,2.391-2.313,5.161-0.819,5.46
						c1.495,0.299-0.149,2.883-0.149,2.883s-5.38,1.494-7.472,2.69c-2.092,1.196-5.679,3.587-5.679,3.587s2.391,0.897,3.587,1.494
						c1.196,0.598,0.299,7.472,0.299,7.472l-2.989-1.494c0,0-0.897,4.782-0.897,5.679s0,2.989,0,2.989s-3.587-4.483-3.288-2.092
						c0.177,1.414,0.77,3.45,1.227,4.882c-0.262,0.433-0.495,0.886-0.696,1.375c-1.718-0.378-4.538-0.763-4.118,0.917
						c0.319,1.277,1.915,2.976,3.335,4.286c0.012,0.448,0.035,0.913,0.076,1.415c0.087,1.04,0.345,2.089,0.736,3.129l-0.262,0.437
						c0,0-2.69,0.598-3.288,2.092c-0.598,1.495-0.598,2.391,2.69,1.495c1.035-0.282,1.872-0.53,2.561-0.744
						c0.255,0.387,0.523,0.77,0.81,1.147c-0.376,0.605-0.681,1.234-0.681,1.689c0,1.196,0,3.587,0,3.587s2.172-1.45,3.045-2.612
						c0.141,0.138,0.287,0.272,0.432,0.407c0.372,1.468,1.223,4.452,1.903,3.999c0.564-0.376,1.091-0.81,1.559-1.23
						c0.723,0.491,1.466,0.944,2.221,1.36l0.404,2.56l1.691-1.522c0.706,0.311,1.416,0.584,2.125,0.815l0.668,1.603l1.533-1.022
						c0.944,0.189,1.874,0.299,2.773,0.309l0.177,0.414c2.391,0.299,4.184,0.897,4.184,0.897l1.096-2.809
						c0,0,1.594,0.418,3.089,0.119c0.891-0.178,1.356-1.843,1.587-3.159c0.349-0.204,0.7-0.399,1.054-0.588
						c0.387,0.397,0.844,0.758,1.245,0.758c0.5,0,1.184-1.113,1.693-2.099c0.383-0.143,0.773-0.272,1.168-0.391l1.323,3.088
						l1.655-2.152l1.288-1.674c0.136-0.007,0.273-0.012,0.41-0.016l4.716,0.555l-0.598,3.288c0,0,2.092-0.598,3.587-0.897
						c0.564-0.113,1.383-0.523,2.185-0.991c0.568,0.217,1.15,0.456,1.746,0.714l-0.942,2.669l4.103-1.172
						c0.832,0.426,1.692,0.891,2.577,1.393c0.473,2.098,1.315,5.055,2.287,4.861c0.74-0.148,1.7-0.956,2.481-1.734
						c0.328,0.252,0.657,0.503,0.976,0.763c-0.107,0.887-0.129,1.778,0.13,2.166c0.301,0.451,1.207,0.145,2.033-0.27
						c0.607,0.565,1.204,1.139,1.78,1.728c0.273,2.77,0.795,6.843,1.567,7.808c1.082,1.353,3.138-1.449,3.519-1.995
						c0.03,0.037,0.059,0.074,0.089,0.112c0.109,1.045,0.641,5.899,1.174,6.964c0.598,1.195,3.288,4.782,3.288,4.782l1.363-4.317
						c0.41,0.509,0.82,1.011,1.23,1.5c0.496,1.691,1.124,3.676,1.591,4.611c0.897,1.793,0.897,2.391,2.989,3.288
						c2.092,0.897,2.092,0.897,2.092,0.897l0.606-2.019c1.321,0.835,2.71,1.493,4.203,1.913l1.767,1.302l5.978,2.092l-0.381-3.191
						c1.838-0.359,3.504-0.926,5.028-1.647l-1.06,4.241c0,0,3.885-2.69,5.081-4.184c0.608-0.76,1.371-2.68,1.973-4.384
						c0.39-0.404,0.763-0.822,1.119-1.252c0.167,2.312,0.565,5.793,1.391,4.141c0.765-1.53,1.284-5.748,1.56-8.59
						c0.352-0.667,0.683-1.342,0.982-2.028c0.755,0.604,1.86,1.055,2.241-1.038c0.35-1.926,0.082-3.638-0.258-5.034
						c0.312-1.345,0.545-2.671,0.704-3.948c0.886-0.462,1.931-0.984,2.243-2.077C128.386,406.73,127.392,404.76,125.989,402.684z"/>
					<path style="opacity:0.26;" d="M107.08,433.587c0.433-0.085,0.855-0.183,1.27-0.29c0.06-1.368-0.155-2.601-0.411-3.653
						c0.312-1.345,0.545-2.671,0.704-3.948c0.886-0.462,1.931-0.984,2.243-2.077c0.302-1.056-0.692-3.026-2.095-5.102
						c-0.077-0.728-0.181-1.393-0.315-1.961c-1.73-7.351-9.081-9.081-13.838-14.27c-2.607-2.844-2.231-8.291-3.919-15.05
						c0.388,0.104,0.669-0.143,0.739-0.977c0.227-2.726-4.028-8.377-6.086-10.938c-0.285-0.413-0.585-0.827-0.898-1.243
						c0.974,0.378,5.573,2.101,3.697,0.225c-2.092-2.092-8.667-5.746-8.667-5.746s10.759,0.067,5.379-2.025
						c-4.187-1.628-8.542-1.807-10.274-1.807c-0.186-0.121-0.373-0.234-0.56-0.351c0.712-1.198,2.707-5.015-0.823-5.015
						c-2.989,0-5.042,1.06-5.983,1.669c-0.114-0.043-0.228-0.09-0.343-0.132c0.698-1.603,2.465-6.112-0.25-5.124
						c-2.562,0.931-4.392,2.765-5.078,3.532c-0.109-0.025-0.216-0.046-0.325-0.071c-0.091-1.503-0.494-6.53-1.77-5.255
						c-1.171,1.171-2.704,3.436-3.315,4.365c-0.224-0.028-0.447-0.056-0.669-0.081c-1.513-1.867-6.903-8.217-7.673-4.882
						c-0.525,2.273-0.84,3.709-1.015,4.525c-0.397,0.012-0.781,0.027-1.153,0.044c-1.762-1.441-5.304-4.197-5.304-3.075
						c0,1.494-1.06,3.736-1.06,3.736s-5.814-5.828-6.711-4.035c-0.744,1.487-0.869,3.162-0.891,3.697
						c-0.134,0.007-0.272,0.008-0.405,0.016c-1.615-0.695-7.671-3.214-7.671-1.919c0,0.934,0.35,2.218,0.613,3.05
						c-0.417,0.112-0.824,0.236-1.23,0.362c-2.541-0.762-7.375-2.047-7.154-0.722c0.299,1.793,0.299,1.793,0.299,1.793
						s-1.566-1.098-4.274-0.757c0.701,0.269,2.32,0.902,3.24,1.362c1.196,0.598,0.299,7.472,0.299,7.472l-2.989-1.494
						c0,0-0.897,4.782-0.897,5.679s0,2.989,0,2.989s-3.587-4.483-3.288-2.092c0.177,1.414,0.77,3.45,1.227,4.882
						c-0.262,0.433-0.495,0.886-0.696,1.375c-1.718-0.378-4.538-0.763-4.118,0.917c0.319,1.277,1.915,2.976,3.335,4.286
						c0.012,0.448,0.035,0.913,0.076,1.415c0.087,1.04,0.345,2.089,0.736,3.129l-0.262,0.437c0,0-2.69,0.598-3.288,2.092
						c-0.598,1.495-0.598,2.391,2.69,1.495c1.035-0.282,1.872-0.53,2.561-0.744c0.255,0.387,0.523,0.77,0.81,1.147
						c-0.376,0.605-0.681,1.234-0.681,1.689c0,1.196,0,3.587,0,3.587s2.172-1.45,3.045-2.612c0.141,0.138,0.287,0.272,0.432,0.407
						c0.372,1.468,1.223,4.452,1.903,3.999c0.564-0.376,1.091-0.81,1.559-1.23c0.723,0.491,1.466,0.944,2.221,1.36l0.404,2.56
						l1.691-1.522c0.706,0.311,1.416,0.584,2.125,0.815l0.668,1.603l1.533-1.022c0.944,0.189,1.874,0.299,2.773,0.309l0.177,0.414
						c2.391,0.299,4.184,0.897,4.184,0.897l1.096-2.809c0,0,1.594,0.418,3.089,0.119c0.891-0.178,1.356-1.843,1.587-3.159
						c0.349-0.204,0.7-0.399,1.054-0.588c0.387,0.397,0.844,0.758,1.245,0.758c0.5,0,1.184-1.113,1.693-2.099
						c0.383-0.143,0.773-0.272,1.168-0.391l1.323,3.088l1.655-2.152l1.288-1.674c0.136-0.007,0.273-0.012,0.41-0.016l4.716,0.555
						l-0.598,3.288c0,0,2.092-0.598,3.587-0.897c0.564-0.113,1.383-0.523,2.185-0.991c0.568,0.217,1.15,0.456,1.746,0.714
						l-0.942,2.669l4.103-1.172c0.832,0.426,1.692,0.891,2.577,1.393c0.473,2.098,1.315,5.055,2.287,4.861
						c0.74-0.148,1.7-0.956,2.481-1.734c0.328,0.252,0.657,0.503,0.976,0.763c-0.107,0.887-0.129,1.778,0.13,2.166
						c0.301,0.451,1.207,0.145,2.033-0.27c0.607,0.565,1.204,1.139,1.78,1.728c0.273,2.77,0.795,6.843,1.567,7.808
						c1.082,1.353,3.138-1.449,3.519-1.995c0.03,0.037,0.059,0.074,0.089,0.112c0.109,1.045,0.641,5.899,1.174,6.964
						c0.598,1.195,3.288,4.782,3.288,4.782l1.363-4.317c0.41,0.509,0.82,1.011,1.23,1.5c0.496,1.691,1.124,3.676,1.591,4.611
						c0.897,1.793,0.897,2.391,2.989,3.288c2.092,0.897,2.092,0.897,2.092,0.897l0.606-2.019c1.321,0.835,2.71,1.493,4.203,1.913
						l1.767,1.302l4.251,1.488c0.071-0.154,0.154-0.303,0.222-0.458c0.43,0.344,0.973,0.636,1.431,0.44L107.08,433.587z"/>
					<path style="fill:none;stroke:#263238;stroke-miterlimit:10;" d="M125.989,402.684c-0.077-0.728-0.181-1.393-0.315-1.961
						c-1.73-7.351-9.081-9.081-13.838-14.27c-2.607-2.844-2.231-8.291-3.919-15.05c0.388,0.104,0.669-0.143,0.739-0.977
						c0.227-2.726-4.028-8.377-6.086-10.938c-0.285-0.413-0.585-0.827-0.898-1.243c0.974,0.378,5.573,2.101,3.697,0.225
						c-2.092-2.092-8.667-5.746-8.667-5.746s10.759,0.067,5.379-2.025c-4.187-1.628-8.543-1.807-10.274-1.807
						c-0.186-0.12-0.373-0.234-0.56-0.351c0.712-1.198,2.707-5.015-0.823-5.015c-2.989,0-5.042,1.06-5.983,1.669
						c-0.114-0.043-0.228-0.09-0.343-0.132c0.699-1.603,2.465-6.112-0.25-5.124c-2.562,0.931-4.392,2.765-5.078,3.532
						c-0.109-0.025-0.216-0.046-0.325-0.071c-0.091-1.503-0.495-6.53-1.77-5.255c-1.171,1.171-2.704,3.436-3.315,4.365
						c-0.224-0.028-0.447-0.056-0.669-0.081c-1.513-1.867-6.903-8.217-7.673-4.882c-0.525,2.273-0.84,3.709-1.015,4.525
						c-0.397,0.012-0.781,0.027-1.153,0.044c-1.762-1.441-5.304-4.197-5.304-3.075c0,1.494-1.06,3.736-1.06,3.736
						s-5.814-5.828-6.711-4.035c-0.744,1.487-0.869,3.162-0.89,3.697c-0.134,0.007-0.272,0.008-0.405,0.016
						c-1.615-0.695-7.671-3.214-7.671-1.919c0,0.934,0.35,2.218,0.613,3.05c-0.417,0.112-0.824,0.236-1.23,0.362
						c-2.541-0.762-7.375-2.047-7.154-0.722c0.299,1.793,0.299,1.793,0.299,1.793s-2.918-2.066-7.7,0.325
						c-4.782,2.391-2.313,5.161-0.819,5.46c1.495,0.299-0.149,2.883-0.149,2.883s-5.38,1.494-7.472,2.69
						c-2.092,1.196-5.679,3.587-5.679,3.587s2.391,0.897,3.587,1.494c1.196,0.598,0.299,7.472,0.299,7.472l-2.989-1.494
						c0,0-0.897,4.782-0.897,5.679s0,2.989,0,2.989s-3.587-4.483-3.288-2.092c0.177,1.414,0.77,3.45,1.227,4.882
						c-0.262,0.433-0.495,0.886-0.696,1.375c-1.718-0.378-4.538-0.763-4.118,0.917c0.319,1.277,1.915,2.976,3.335,4.286
						c0.012,0.448,0.035,0.913,0.076,1.415c0.087,1.04,0.345,2.089,0.736,3.129l-0.262,0.437c0,0-2.69,0.598-3.288,2.092
						c-0.598,1.495-0.598,2.391,2.69,1.495c1.035-0.282,1.872-0.53,2.561-0.744c0.255,0.387,0.523,0.77,0.81,1.147
						c-0.376,0.605-0.681,1.234-0.681,1.689c0,1.196,0,3.587,0,3.587s2.172-1.45,3.045-2.612c0.141,0.138,0.287,0.272,0.432,0.407
						c0.372,1.468,1.223,4.452,1.903,3.999c0.564-0.376,1.091-0.81,1.559-1.23c0.723,0.491,1.466,0.944,2.221,1.36l0.404,2.56
						l1.691-1.522c0.706,0.311,1.416,0.584,2.125,0.815l0.668,1.603l1.533-1.022c0.944,0.189,1.874,0.299,2.773,0.309l0.177,0.414
						c2.391,0.299,4.184,0.897,4.184,0.897l1.096-2.809c0,0,1.594,0.418,3.089,0.119c0.891-0.178,1.356-1.843,1.587-3.159
						c0.349-0.204,0.7-0.399,1.054-0.588c0.387,0.397,0.844,0.758,1.245,0.758c0.5,0,1.184-1.113,1.693-2.099
						c0.383-0.143,0.773-0.272,1.168-0.391l1.323,3.088l1.655-2.152l1.288-1.674c0.136-0.007,0.273-0.012,0.41-0.016l4.716,0.555
						l-0.598,3.288c0,0,2.092-0.598,3.587-0.897c0.564-0.113,1.383-0.523,2.185-0.991c0.568,0.217,1.15,0.456,1.746,0.714
						l-0.942,2.669l4.103-1.172c0.832,0.426,1.692,0.891,2.577,1.393c0.473,2.098,1.315,5.055,2.287,4.861
						c0.74-0.148,1.7-0.956,2.481-1.734c0.328,0.252,0.657,0.503,0.976,0.763c-0.107,0.887-0.129,1.778,0.13,2.166
						c0.301,0.451,1.207,0.145,2.033-0.27c0.607,0.565,1.204,1.139,1.78,1.728c0.273,2.77,0.795,6.843,1.567,7.808
						c1.082,1.353,3.138-1.449,3.519-1.995c0.03,0.037,0.059,0.074,0.089,0.112c0.109,1.045,0.641,5.899,1.174,6.964
						c0.598,1.195,3.288,4.782,3.288,4.782l1.363-4.317c0.41,0.509,0.82,1.011,1.23,1.5c0.496,1.691,1.124,3.676,1.591,4.611
						c0.897,1.793,0.897,2.391,2.989,3.288c2.092,0.897,2.092,0.897,2.092,0.897l0.606-2.019c1.321,0.835,2.71,1.493,4.203,1.913
						l1.767,1.302l5.978,2.092l-0.381-3.191c1.838-0.359,3.504-0.926,5.028-1.647l-1.06,4.241c0,0,3.885-2.69,5.081-4.184
						c0.608-0.76,1.371-2.68,1.973-4.384c0.39-0.404,0.763-0.822,1.119-1.252c0.167,2.312,0.565,5.793,1.391,4.141
						c0.765-1.53,1.284-5.748,1.56-8.59c0.352-0.667,0.683-1.342,0.982-2.028c0.755,0.604,1.86,1.055,2.241-1.038
						c0.35-1.926,0.082-3.638-0.258-5.034c0.312-1.345,0.545-2.671,0.704-3.948c0.886-0.462,1.931-0.984,2.243-2.077
						C128.386,406.73,127.392,404.76,125.989,402.684z"/>
				</g>
				<g>
					<path style="fill:#92E3A9;" d="M46.411,410.183l0.944-0.708l-2.544-2.266c0,0,1.382-0.721,1.548-1.882
						c0.166-1.161,0.166-2.489,0.166-2.489s-3.817,1.493-4.48,1.825c-0.169,0.084-0.445,0.212-0.763,0.354
						c-0.716-0.126-1.449-0.122-2.174-0.025l0.116-2.32c0,0-0.996-0.332-2.323,1.659c-0.445,0.667-0.808,1.212-1.104,1.656
						c-2.039,0.916-3.526,2.087-3.526,2.087c-0.666,0.266-2.154,0.781-3.817,1.679c-0.88-0.317-5.733-2.012-6.487-1.107
						c-0.83,0.996,1.825,1.327,2.655,1.825c0.83,0.498-2.821-0.332-3.817,0.498c-0.996,0.83-2.157,4.148-2.157,4.148l3.153-0.996
						c0,0-1.825,2.987-1.825,3.485s-0.166,2.323-0.166,2.323l1.721-0.737c-0.022,0.301-0.032,0.609-0.03,0.925
						c-0.368,0.727-0.774,1.612-0.861,2.135c-0.166,0.996,0.498,3.485,0.498,3.485l1.286-0.827c0.172,0.434,0.363,0.807,0.565,1.139
						c-0.102,0.789-0.053,1.652,0.472,2.177c1.162,1.162,1.162,1.162,1.162,1.162l1.254-1.489c0.576,0.007,1.186-0.129,1.818-0.376
						c0.404,1.196,0.971,2.72,1.076,2.197c0.081-0.404,0.674-1.991,1.261-3.511c1.049-0.748,2.122-1.694,3.177-2.737l0.541,0.108
						c0,0-0.021-0.25-0.037-0.612c0.642-0.657,1.275-1.343,1.889-2.036c1.017,0.606,2.131,1.322,2.131,1.322l-0.1-3.708
						c0.391-0.476,0.769-0.943,1.127-1.39c0.184-0.23,0.368-0.427,0.552-0.636c0.436,0.103,0.847,0.2,1.077,0.258
						c0.326,0.081,0.371-0.796,0.334-1.71c0.636-0.575,1.252-1.046,1.831-1.444c0.055,0,0.101,0.002,0.159,0.002
						c2.987,0,4.646-0.664,4.646-0.664l-1.502-1.502C46.246,411.093,46.452,410.702,46.411,410.183z"/>
					<path style="opacity:0.26;" d="M46.411,410.183l0.944-0.708l-2.544-2.266c0,0,1.382-0.721,1.548-1.882
						c0.166-1.161,0.166-2.489,0.166-2.489s-3.817,1.493-4.48,1.825c-0.169,0.084-0.445,0.212-0.763,0.354
						c-0.716-0.126-1.449-0.122-2.174-0.025l0.116-2.32c0,0-0.996-0.332-2.323,1.659c-0.445,0.667-0.808,1.212-1.104,1.656
						c-2.039,0.916-3.526,2.087-3.526,2.087c-0.666,0.266-2.154,0.781-3.817,1.679c-0.88-0.317-5.733-2.012-6.487-1.107
						c-0.83,0.996,1.825,1.327,2.655,1.825c0.83,0.498-2.821-0.332-3.817,0.498c-0.996,0.83-2.157,4.148-2.157,4.148l3.153-0.996
						c0,0-1.825,2.987-1.825,3.485s-0.166,2.323-0.166,2.323l1.721-0.737c-0.022,0.301-0.032,0.609-0.03,0.925
						c-0.368,0.727-0.774,1.612-0.861,2.135c-0.166,0.996,0.498,3.485,0.498,3.485l1.286-0.827c0.172,0.434,0.363,0.807,0.565,1.139
						c-0.102,0.789-0.053,1.652,0.472,2.177c1.162,1.162,1.162,1.162,1.162,1.162l1.254-1.489c0.576,0.007,1.186-0.129,1.818-0.376
						c0.404,1.196,0.971,2.72,1.076,2.197c0.081-0.404,0.674-1.991,1.261-3.511c1.049-0.748,2.122-1.694,3.177-2.737l0.541,0.108
						c0,0-0.021-0.25-0.037-0.612c0.642-0.657,1.275-1.343,1.889-2.036c1.017,0.606,2.131,1.322,2.131,1.322l-0.1-3.708
						c0.391-0.476,0.769-0.943,1.127-1.39c0.184-0.23,0.368-0.427,0.552-0.636c0.436,0.103,0.847,0.2,1.077,0.258
						c0.326,0.081,0.371-0.796,0.334-1.71c0.636-0.575,1.252-1.046,1.831-1.444c0.055,0,0.101,0.002,0.159,0.002
						c2.987,0,4.646-0.664,4.646-0.664l-1.502-1.502C46.246,411.093,46.452,410.702,46.411,410.183z"/>
					<path style="fill:none;stroke:#263238;stroke-miterlimit:10;" d="M46.411,410.183l0.944-0.708l-2.544-2.266
						c0,0,1.382-0.721,1.548-1.882c0.166-1.161,0.166-2.489,0.166-2.489s-3.817,1.493-4.48,1.825
						c-0.169,0.084-0.445,0.212-0.763,0.354c-0.716-0.126-1.449-0.122-2.174-0.025l0.116-2.32c0,0-0.996-0.332-2.323,1.659
						c-0.445,0.667-0.808,1.212-1.104,1.656c-2.039,0.916-3.526,2.087-3.526,2.087c-0.666,0.266-2.154,0.781-3.817,1.679
						c-0.88-0.317-5.733-2.012-6.487-1.107c-0.83,0.996,1.825,1.327,2.655,1.825c0.83,0.498-2.821-0.332-3.817,0.498
						c-0.996,0.83-2.157,4.148-2.157,4.148l3.153-0.996c0,0-1.825,2.987-1.825,3.485s-0.166,2.323-0.166,2.323l1.721-0.737
						c-0.022,0.301-0.032,0.609-0.03,0.925c-0.368,0.727-0.774,1.612-0.861,2.135c-0.166,0.996,0.498,3.485,0.498,3.485l1.286-0.827
						c0.172,0.434,0.363,0.807,0.565,1.139c-0.102,0.789-0.053,1.652,0.472,2.177c1.162,1.162,1.162,1.162,1.162,1.162l1.254-1.489
						c0.576,0.007,1.186-0.129,1.818-0.376c0.404,1.196,0.971,2.72,1.076,2.197c0.081-0.404,0.674-1.991,1.261-3.511
						c1.049-0.748,2.122-1.694,3.177-2.737l0.541,0.108c0,0-0.021-0.25-0.037-0.612c0.642-0.657,1.275-1.343,1.889-2.036
						c1.017,0.606,2.131,1.322,2.131,1.322l-0.1-3.708c0.391-0.476,0.769-0.943,1.127-1.39c0.184-0.23,0.368-0.427,0.552-0.636
						c0.436,0.103,0.847,0.2,1.077,0.258c0.326,0.081,0.371-0.796,0.334-1.71c0.636-0.575,1.252-1.046,1.831-1.444
						c0.055,0,0.101,0.002,0.159,0.002c2.987,0,4.646-0.664,4.646-0.664l-1.502-1.502C46.246,411.093,46.452,410.702,46.411,410.183
						z"/>
				</g>
				<polyline style="fill:none;stroke:#263238;stroke-width:3;stroke-linejoin:round;stroke-miterlimit:10;" points="
					67.297,402.885 59.081,432.29 77.572,417.649 				"/>
				<g>
					<path style="fill:#263238;" d="M52.274,396.617l9.653,35.048c0.071,0.257,0.091,0.516,0.066,0.766l-0.004,0.033l-2.081,20.56
						l-4.121-0.246l0.383-20.661l0.063,0.798l-5.914-35.869L52.274,396.617z"/>
				</g>
				<g>
					<polygon style="fill:#263238;" points="39.713,416.863 51.394,452.057 47.741,453.171 37.8,417.447 					"/>
				</g>
				
					<line style="fill:none;stroke:#263238;stroke-width:3;stroke-linejoin:round;stroke-miterlimit:10;" x1="31.838" y1="425.371" x2="44.811" y2="437.911"/>
			</g>
			<path style="fill:#92E3A9;stroke:#263238;stroke-linecap:round;stroke-linejoin:round;stroke-miterlimit:10;" d="M37.084,450.514
				l-4.082-0.48l2.642,2.401l-5.003,1.201h44.785l-1.361-0.48l1.201-1.921l-7.204,1.681l1.201-3.602l-5.523,1.441l2.882-3.122
				l-2.161-0.24l-5.283,1.201l1.201-2.401l-4.803,1.681l2.401-4.082l-3.122,0.48l-4.803,4.082l-1.441-5.763l-1.681,6.003
				l-1.441-4.082l-0.961,4.323l-4.082-3.122l1.201,3.842c0,0-2.882-2.401-3.842-2.882c-0.96-0.48-5.043-2.401-5.043-2.401
				s1.681,2.161,2.642,3.842C36.363,449.794,37.084,450.514,37.084,450.514z"/>
		</g>
		<g>
			<g>
				<path style="fill:#92E3A9;" d="M412.528,385.936c-0.23-0.088-0.444-0.158-0.634-0.204c-2.462-0.601-4.099,1.335-6.375,1.968
					c-1.248,0.347-2.82-0.594-5.099-1.118c0.09-0.1,0.059-0.222-0.18-0.37c-0.781-0.483-3.119-0.07-4.198,0.156
					c-0.167,0.023-0.337,0.049-0.509,0.08c0.261-0.234,1.477-1.347,0.63-1.072c-0.944,0.307-3.038,1.718-3.038,1.718
					s1.658-3.209,0.213-1.918c-1.124,1.005-1.841,2.28-2.104,2.798c-0.064,0.037-0.127,0.076-0.19,0.114
					c-0.25-0.395-1.088-1.573-1.626-0.517c-0.455,0.894-0.45,1.669-0.411,2.044c-0.03,0.028-0.062,0.055-0.092,0.082
					c-0.373-0.453-1.453-1.668-1.571-0.705c-0.111,0.908,0.159,1.735,0.284,2.057c-0.024,0.029-0.047,0.058-0.071,0.087
					c-0.464-0.202-2.029-0.846-1.841-0.27c0.172,0.528,0.616,1.332,0.801,1.656c-0.042,0.063-0.085,0.125-0.126,0.188
					c-0.789,0.168-3.509,0.815-2.628,1.552c0.6,0.503,0.982,0.816,1.199,0.992c-0.057,0.121-0.111,0.238-0.162,0.352
					c-0.699,0.308-2.063,0.948-1.727,1.119c0.447,0.227,0.956,0.886,0.956,0.886s-2.629,0.852-2.229,1.393
					c0.332,0.449,0.814,0.741,0.97,0.829c-0.018,0.041-0.039,0.082-0.057,0.124c-0.454,0.377-2.129,1.806-1.742,2.003
					c0.279,0.142,0.717,0.233,1.006,0.281c-0.03,0.142-0.055,0.282-0.079,0.423c-0.615,0.644-1.735,1.895-1.305,2.03
					c0.582,0.184,0.582,0.184,0.582,0.184s-1.062,0.559-1.075,2.353c-0.013,1.795,1.192,1.478,1.509,1.076
					c0.317-0.402,0.84,0.483,0.84,0.483s-0.372,1.837-0.333,2.645c0.039,0.808,0.209,2.245,0.209,2.245s0.632-0.579,0.993-0.846
					c0.361-0.267,2.281,1.048,2.281,1.048l-0.902,0.667c0,0,1.294,0.996,1.562,1.133c0.268,0.136,0.894,0.455,0.894,0.455
					s-1.887,0.391-1.126,0.665c0.45,0.162,1.149,0.295,1.647,0.376c0.09,0.144,0.19,0.283,0.305,0.417
					c-0.375,0.457-0.919,1.241-0.353,1.371c0.431,0.099,1.182-0.12,1.79-0.345c0.136,0.065,0.278,0.129,0.435,0.192
					c0.324,0.133,0.677,0.215,1.048,0.256l0.091,0.145c0,0-0.231,0.896,0.125,1.302c0.356,0.406,0.624,0.543,0.857-0.577
					c0.073-0.353,0.126-0.641,0.167-0.879c0.155-0.018,0.31-0.039,0.466-0.068c0.124,0.205,0.265,0.391,0.402,0.461
					c0.358,0.182,1.073,0.546,1.073,0.546s-0.103-0.871-0.318-1.309c0.063-0.021,0.125-0.045,0.188-0.067
					c0.496,0.112,1.518,0.312,1.486,0.039c-0.027-0.226-0.076-0.45-0.131-0.654c0.257-0.142,0.505-0.295,0.745-0.458l0.827,0.269
					l-0.198-0.737c0.201-0.164,0.39-0.335,0.567-0.512l0.581,0.044L397.757,416c0.2-0.254,0.375-0.515,0.514-0.783l0.151,0.01
					c0.453-0.67,0.905-1.115,0.905-1.115l-0.673-0.755c0,0,0.368-0.413,0.506-0.906c0.082-0.294-0.345-0.686-0.704-0.955
					c-0.008-0.135-0.013-0.27-0.016-0.405c0.178-0.055,0.355-0.137,0.416-0.257c0.076-0.149-0.153-0.524-0.37-0.826
					c0.016-0.136,0.036-0.273,0.061-0.409l1.125,0.074l-0.392-0.823l-0.305-0.64c0.019-0.042,0.038-0.083,0.058-0.125l0.884-1.326
					l0.893,0.679c0,0,0.14-0.717,0.278-1.209c0.052-0.186,0.054-0.493,0.036-0.804c0.151-0.137,0.311-0.275,0.479-0.414l0.655,0.688
					l0.274-1.406c0.254-0.184,0.524-0.37,0.809-0.559c0.699,0.178,1.712,0.376,1.802,0.056c0.068-0.244-0.027-0.654-0.141-1.006
					c0.125-0.06,0.25-0.12,0.377-0.176c0.249,0.167,0.512,0.309,0.668,0.291c0.181-0.021,0.227-0.339,0.229-0.649
					c0.262-0.096,0.524-0.187,0.788-0.27c0.87,0.34,2.168,0.804,2.574,0.72c0.569-0.118,0.044-1.159-0.061-1.356
					c0.016-0.003,0.031-0.006,0.047-0.01c0.329,0.126,1.862,0.706,2.262,0.709c0.449,0.003,1.931-0.256,1.931-0.256l-1.084-1.065
					c0.215-0.045,0.427-0.091,0.636-0.14c0.581,0.109,1.271,0.223,1.621,0.226c0.673,0.005,0.852,0.096,1.438-0.394
					c0.587-0.489,0.587-0.489,0.587-0.489l-0.512-0.488c0.451-0.268,0.859-0.583,1.212-0.966l0.658-0.33l1.536-1.47l-1.013-0.372
					c0.172-0.604,0.256-1.189,0.273-1.755l1.107,0.963c0,0-0.213-1.572-0.478-2.157c-0.135-0.298-0.593-0.818-1.011-1.257
					c-0.062-0.178-0.13-0.353-0.204-0.525c0.717,0.302,1.819,0.713,1.451,0.214c-0.341-0.462-1.524-1.259-2.332-1.774
					c-0.146-0.207-0.298-0.409-0.457-0.602c0.296-0.134,0.599-0.396,0.031-0.828c-0.523-0.398-1.076-0.578-1.545-0.689
					c-0.355-0.298-0.716-0.569-1.074-0.812c-0.004-0.335,0-0.727-0.28-0.987C414.103,385.835,413.363,385.832,412.528,385.936z"/>
				<path style="opacity:0.26;" d="M418.895,396.297c0.041-0.143,0.076-0.284,0.107-0.424c-0.4-0.226-0.802-0.349-1.155-0.433
					c-0.355-0.298-0.716-0.57-1.074-0.812c-0.004-0.335,0-0.727-0.28-0.987c-0.27-0.251-1.011-0.253-1.845-0.15
					c-0.229-0.088-0.444-0.158-0.634-0.204c-2.462-0.601-4.099,1.335-6.375,1.968c-1.248,0.347-2.82-0.594-5.099-1.118
					c0.09-0.1,0.059-0.222-0.18-0.37c-0.781-0.483-3.119-0.07-4.198,0.156c-0.167,0.023-0.337,0.049-0.509,0.079
					c0.261-0.234,1.477-1.347,0.63-1.072c-0.944,0.307-3.038,1.718-3.038,1.718s1.658-3.209,0.213-1.918
					c-1.124,1.005-1.841,2.281-2.104,2.798c-0.064,0.037-0.127,0.076-0.19,0.114c-0.25-0.395-1.088-1.573-1.626-0.517
					c-0.455,0.894-0.45,1.669-0.411,2.044c-0.03,0.028-0.062,0.055-0.092,0.082c-0.373-0.453-1.453-1.668-1.571-0.705
					c-0.111,0.908,0.159,1.735,0.284,2.057c-0.024,0.029-0.047,0.058-0.07,0.087c-0.464-0.202-2.029-0.846-1.841-0.27
					c0.172,0.528,0.616,1.332,0.801,1.656c-0.042,0.063-0.085,0.125-0.126,0.188c-0.789,0.168-3.509,0.814-2.628,1.552
					c0.6,0.503,0.982,0.816,1.199,0.992c-0.057,0.12-0.111,0.238-0.162,0.352c-0.699,0.308-2.063,0.948-1.727,1.119
					c0.447,0.227,0.956,0.886,0.956,0.886s-2.628,0.852-2.228,1.393c0.332,0.449,0.814,0.741,0.97,0.829
					c-0.018,0.041-0.039,0.083-0.057,0.124c-0.454,0.377-2.129,1.806-1.742,2.003c0.279,0.142,0.717,0.233,1.006,0.281
					c-0.03,0.142-0.055,0.282-0.079,0.423c-0.615,0.644-1.735,1.895-1.305,2.03c0.582,0.183,0.582,0.183,0.582,0.183
					s-0.567,0.301-0.877,1.164c0.187-0.169,0.623-0.557,0.901-0.762c0.361-0.267,2.281,1.048,2.281,1.048l-0.902,0.667
					c0,0,1.294,0.996,1.562,1.133c0.268,0.136,0.894,0.455,0.894,0.455s-1.887,0.391-1.126,0.665
					c0.45,0.162,1.149,0.295,1.647,0.376c0.09,0.144,0.19,0.283,0.305,0.417c-0.375,0.457-0.919,1.241-0.353,1.371
					c0.431,0.099,1.182-0.12,1.79-0.345c0.136,0.065,0.278,0.129,0.435,0.192c0.324,0.133,0.677,0.215,1.048,0.256l0.091,0.145
					c0,0-0.231,0.896,0.125,1.302c0.356,0.406,0.624,0.543,0.857-0.577c0.073-0.353,0.126-0.641,0.167-0.879
					c0.155-0.018,0.31-0.039,0.466-0.068c0.124,0.205,0.265,0.391,0.402,0.461c0.358,0.182,1.073,0.546,1.073,0.546
					s-0.103-0.871-0.318-1.309c0.063-0.021,0.125-0.045,0.188-0.067c0.496,0.112,1.518,0.312,1.486,0.039
					c-0.027-0.226-0.076-0.45-0.131-0.654c0.257-0.142,0.505-0.295,0.745-0.458l0.827,0.269l-0.198-0.737
					c0.201-0.164,0.39-0.335,0.567-0.512l0.581,0.044L397.757,416c0.2-0.254,0.375-0.515,0.514-0.783l0.151,0.01
					c0.453-0.67,0.905-1.115,0.905-1.115l-0.673-0.755c0,0,0.368-0.413,0.506-0.906c0.082-0.294-0.345-0.686-0.704-0.955
					c-0.008-0.135-0.013-0.27-0.016-0.405c0.178-0.055,0.355-0.137,0.416-0.257c0.076-0.149-0.153-0.524-0.37-0.826
					c0.016-0.136,0.036-0.273,0.061-0.409l1.125,0.074l-0.392-0.823l-0.305-0.64c0.019-0.042,0.038-0.083,0.058-0.125l0.884-1.326
					l0.893,0.679c0,0,0.14-0.717,0.278-1.209c0.052-0.186,0.054-0.493,0.036-0.804c0.151-0.137,0.311-0.275,0.479-0.414l0.655,0.688
					l0.274-1.406c0.254-0.184,0.524-0.37,0.809-0.559c0.699,0.178,1.712,0.376,1.802,0.056c0.068-0.244-0.027-0.654-0.141-1.006
					c0.125-0.06,0.25-0.12,0.377-0.176c0.249,0.167,0.512,0.309,0.668,0.291c0.181-0.021,0.227-0.339,0.229-0.649
					c0.262-0.096,0.524-0.187,0.788-0.27c0.87,0.34,2.168,0.804,2.574,0.72c0.569-0.118,0.044-1.159-0.061-1.356
					c0.016-0.003,0.031-0.006,0.047-0.01c0.329,0.126,1.862,0.706,2.262,0.709c0.449,0.003,1.931-0.256,1.931-0.256l-1.084-1.065
					c0.215-0.045,0.427-0.091,0.636-0.14c0.581,0.109,1.271,0.223,1.621,0.226c0.673,0.005,0.852,0.096,1.438-0.394
					c0.587-0.489,0.587-0.489,0.587-0.489l-0.512-0.488c0.451-0.268,0.859-0.583,1.212-0.966l0.658-0.33l1.092-1.045
					c-0.035-0.044-0.067-0.092-0.103-0.136c0.168-0.076,0.338-0.194,0.35-0.361L418.895,396.297z"/>
				<path style="fill:none;stroke:#263238;stroke-miterlimit:10;" d="M412.528,385.936c-0.23-0.088-0.444-0.158-0.634-0.204
					c-2.462-0.601-4.099,1.335-6.375,1.968c-1.248,0.347-2.82-0.594-5.099-1.118c0.09-0.1,0.059-0.222-0.18-0.37
					c-0.781-0.483-3.119-0.07-4.198,0.156c-0.167,0.023-0.337,0.049-0.509,0.08c0.261-0.234,1.477-1.347,0.63-1.072
					c-0.944,0.307-3.038,1.718-3.038,1.718s1.658-3.209,0.213-1.918c-1.124,1.005-1.841,2.28-2.104,2.798
					c-0.064,0.037-0.127,0.076-0.19,0.114c-0.25-0.395-1.088-1.573-1.626-0.517c-0.455,0.894-0.45,1.669-0.411,2.044
					c-0.03,0.028-0.062,0.055-0.092,0.082c-0.373-0.453-1.453-1.668-1.571-0.705c-0.111,0.908,0.159,1.735,0.284,2.057
					c-0.024,0.029-0.047,0.058-0.071,0.087c-0.464-0.202-2.029-0.846-1.841-0.27c0.172,0.528,0.616,1.332,0.801,1.656
					c-0.042,0.063-0.085,0.125-0.126,0.188c-0.789,0.168-3.509,0.815-2.628,1.552c0.6,0.503,0.982,0.816,1.199,0.992
					c-0.057,0.121-0.111,0.238-0.162,0.352c-0.699,0.308-2.063,0.948-1.727,1.119c0.447,0.227,0.956,0.886,0.956,0.886
					s-2.629,0.852-2.229,1.393c0.332,0.449,0.814,0.741,0.97,0.829c-0.018,0.041-0.039,0.082-0.057,0.124
					c-0.454,0.377-2.129,1.806-1.742,2.003c0.279,0.142,0.717,0.233,1.006,0.281c-0.03,0.142-0.055,0.282-0.079,0.423
					c-0.615,0.644-1.735,1.895-1.305,2.03c0.582,0.184,0.582,0.184,0.582,0.184s-1.062,0.559-1.075,2.353
					c-0.013,1.795,1.192,1.478,1.509,1.076c0.317-0.402,0.84,0.483,0.84,0.483s-0.372,1.837-0.333,2.645
					c0.039,0.808,0.209,2.245,0.209,2.245s0.632-0.579,0.993-0.846c0.361-0.267,2.281,1.048,2.281,1.048l-0.902,0.667
					c0,0,1.294,0.996,1.562,1.133c0.268,0.136,0.894,0.455,0.894,0.455s-1.887,0.391-1.126,0.665
					c0.45,0.162,1.149,0.295,1.647,0.376c0.09,0.144,0.19,0.283,0.305,0.417c-0.375,0.457-0.919,1.241-0.353,1.371
					c0.431,0.099,1.182-0.12,1.79-0.345c0.136,0.065,0.278,0.129,0.435,0.192c0.324,0.133,0.677,0.215,1.048,0.256l0.091,0.145
					c0,0-0.231,0.896,0.125,1.302c0.356,0.406,0.624,0.543,0.857-0.577c0.073-0.353,0.126-0.641,0.167-0.879
					c0.155-0.018,0.31-0.039,0.466-0.068c0.124,0.205,0.265,0.391,0.402,0.461c0.358,0.182,1.073,0.546,1.073,0.546
					s-0.103-0.871-0.318-1.309c0.063-0.021,0.125-0.045,0.188-0.067c0.496,0.112,1.518,0.312,1.486,0.039
					c-0.027-0.226-0.076-0.45-0.131-0.654c0.257-0.142,0.505-0.295,0.745-0.458l0.827,0.269l-0.198-0.737
					c0.201-0.164,0.39-0.335,0.567-0.512l0.581,0.044L397.757,416c0.2-0.254,0.375-0.515,0.514-0.783l0.151,0.01
					c0.453-0.67,0.905-1.115,0.905-1.115l-0.673-0.755c0,0,0.368-0.413,0.506-0.906c0.082-0.294-0.345-0.686-0.704-0.955
					c-0.008-0.135-0.013-0.27-0.016-0.405c0.178-0.055,0.355-0.137,0.416-0.257c0.076-0.149-0.153-0.524-0.37-0.826
					c0.016-0.136,0.036-0.273,0.061-0.409l1.125,0.074l-0.392-0.823l-0.305-0.64c0.019-0.042,0.038-0.083,0.058-0.125l0.884-1.326
					l0.893,0.679c0,0,0.14-0.717,0.278-1.209c0.052-0.186,0.054-0.493,0.036-0.804c0.151-0.137,0.311-0.275,0.479-0.414l0.655,0.688
					l0.274-1.406c0.254-0.184,0.524-0.37,0.809-0.559c0.699,0.178,1.712,0.376,1.802,0.056c0.068-0.244-0.027-0.654-0.141-1.006
					c0.125-0.06,0.25-0.12,0.377-0.176c0.249,0.167,0.512,0.309,0.668,0.291c0.181-0.021,0.227-0.339,0.229-0.649
					c0.262-0.096,0.524-0.187,0.788-0.27c0.87,0.34,2.168,0.804,2.574,0.72c0.569-0.118,0.044-1.159-0.061-1.356
					c0.016-0.003,0.031-0.006,0.047-0.01c0.329,0.126,1.862,0.706,2.262,0.709c0.449,0.003,1.931-0.256,1.931-0.256l-1.084-1.065
					c0.215-0.045,0.427-0.091,0.636-0.14c0.581,0.109,1.271,0.223,1.621,0.226c0.673,0.005,0.852,0.096,1.438-0.394
					c0.587-0.489,0.587-0.489,0.587-0.489l-0.512-0.488c0.451-0.268,0.859-0.583,1.212-0.966l0.658-0.33l1.536-1.47l-1.013-0.372
					c0.172-0.604,0.256-1.189,0.273-1.755l1.107,0.963c0,0-0.213-1.572-0.478-2.157c-0.135-0.298-0.593-0.818-1.011-1.257
					c-0.062-0.178-0.13-0.353-0.204-0.525c0.717,0.302,1.819,0.713,1.451,0.214c-0.341-0.462-1.524-1.259-2.332-1.774
					c-0.146-0.207-0.298-0.409-0.457-0.602c0.296-0.134,0.599-0.396,0.031-0.828c-0.523-0.398-1.076-0.578-1.545-0.689
					c-0.355-0.298-0.716-0.569-1.074-0.812c-0.004-0.335,0-0.727-0.28-0.987C414.103,385.835,413.363,385.832,412.528,385.936z"/>
			</g>
			<g>
				<polyline style="fill:none;stroke:#263238;stroke-width:2;stroke-linejoin:round;stroke-miterlimit:10;" points="
					450.605,406.752 433.088,430.675 430.313,406.027 				"/>
				<g>
					<polygon style="fill:#263238;" points="433.392,423.691 437.098,453.467 431.02,453.805 431.395,423.802 					"/>
				</g>
				
					<line style="fill:none;stroke:#263238;stroke-width:2;stroke-linejoin:round;stroke-miterlimit:10;" x1="451.362" y1="431.677" x2="434.256" y2="442.727"/>
				
					<line style="fill:none;stroke:#263238;stroke-width:2;stroke-linejoin:round;stroke-miterlimit:10;" x1="431.482" y1="418.079" x2="422.243" y2="407.133"/>
				<path style="fill:#92E3A9;" d="M485.815,405.782c0-0.254-0.37-1.263-0.875-2.523c1.397-12.058-9.278-16.138-12.141-17.007
					l-0.773-1.608c-0.146-0.974-0.534-2.376-1.483-3.958c0.984,0.911,2.42,2.108,1.306,0.215c-1.605-2.729-2.729-3.853-4.655-4.495
					c-0.328-0.109-0.618-0.2-0.89-0.283c-0.057-0.043-0.105-0.087-0.164-0.13c-0.3-0.222-0.603-0.408-0.909-0.579
					c1.19-0.267,2.937-0.759,1.481-1.095c-2.087-0.482-3.21-0.963-5.458-0.321c-0.381,0.109-0.809,0.237-1.256,0.373
					c-4.816,0.293-9.533,2.844-12.34-1.573c-1.925-3.031-3.191-8.42-5.754-13.018c1.193,0.904,2.418,1.788,2.335,1.537
					c-0.161-0.481-0.642-3.852-2.568-4.494c-0.897-0.299-1.822-0.665-2.561-0.974c-0.27-0.289-0.554-0.565-0.846-0.833l3.729-1.243
					c0,0-4.173-1.605-6.1-1.605c-0.688,0-1.416,0.063-2.091,0.164c-2.038-0.715-4.456-1.003-7.37-0.681
					c-2.702,0.298-5.097,1.203-7.224,2.488c0.045-0.586,0.21-3.279-0.651-2.131c-0.76,1.013-0.918,2.417-0.952,3.204
					c-0.126,0.093-0.253,0.185-0.377,0.281c-0.779-0.72-2.614-2.717-3.487-1.72c-1.124,1.284,0.16,4.174,0.16,4.174
					s-3.852-1.605-3.692-0.482c0.16,1.124,0.642,2.408,0.642,2.408l-1.605,0.803c0,0-2.247,0.803-2.729,2.247
					c-0.482,1.445,2.568,0.642,3.21,0.642c0.134,0,0.298,0.064,0.471,0.152c-0.532,0.884-1.016,1.768-1.46,2.637
					c-0.92,0.546-1.87,1.194-2.542,1.865c-1.766,1.766-2.087,3.05-2.087,4.013c0,0.415,0.897,0.502,1.916,0.466
					c-0.206,0.586-0.381,1.118-0.528,1.585l-1.228,0.677l-0.6,1.951c-7.621,3.409-9.645,6.116-9.134,8.524
					c-0.499,0.775-1.155,0.989-1.02,3.009c0.16,2.408,3.21,0.642,3.21,0.642s-0.482,1.284,0,2.408
					c0.482,1.124,0.642,2.247,1.124,2.247c0.359,0,1.163-1.693,1.55-2.556c1.657,1.421,3.266,2.862,3.991,4.434
					c1.888,4.1-1.627,5.807-2.76,8.698c-0.255,0.236-0.499,0.509-0.693,0.821c-0.803,1.284-1.926,1.605-2.087,3.371
					c-0.13,1.432,2.167,0.436,3.04,0.008c0.069,0.155,0.145,0.313,0.228,0.474c-0.167,1.108-0.456,3.341-0.218,4.172
					c0.321,1.124,0.161,2.729,0.963,1.926c0.474-0.474,1.339-1.731,1.969-2.682c0.497,0.42,1.02,0.81,1.589,1.142
					c0.641,1.649,1.508,3.558,2.06,3.466c0.438-0.073,0.976-1.045,1.432-2.081c1.161,0.295,2.4,0.469,3.702,0.526
					c0.292,0.193,0.607,0.389,0.966,0.592c3.692,2.087,4.495,1.926,4.495,1.926l0.208-2.92c0.527-0.093,1.063-0.213,1.6-0.335
					l0.439,0.366l1.292-0.808c3.36-0.943,6.835-2.408,10.225-4.377c0.557-0.324,1.119-0.581,1.682-0.808l2.333-0.681
					c6.794-1.264,13.957,3.299,20.883,7.322c0.066,0.127,0.128,0.236,0.184,0.315c0.803,1.124,2.408,4.494,2.408,3.371
					c0-0.465,0.303-1.177,0.658-1.853c0.562,0.304,1.121,0.593,1.678,0.871c0.295,1.263,0.641,2.509,0.874,2.586
					c0.23,0.077,1.119-0.579,1.985-1.285c0.491,0.197,0.979,0.372,1.465,0.534c-0.217,1.392-0.361,2.982,0.082,3.159
					c0.656,0.263,3.669-1.511,4.749-2.169c0.086,0.009,0.171,0.017,0.255,0.025c-0.41,0.832-1.586,3.376-0.509,3.107
					c0.821-0.205,2.36-1.85,3.366-3.013c0.258-0.011,0.51-0.027,0.755-0.05c-0.092,0.795-0.045,1.711,0.694,1.619
					c0.676-0.085,1.44-1.193,2.013-2.224c0.552-0.214,1.06-0.48,1.528-0.803c0.888,1.236,2.471,3.028,3.362,1.582
					c1.143-1.857,0.761-7.01,0.663-8.123c0.018-0.06,0.037-0.119,0.055-0.179c0.338,0.198,1.73,0.94,2.012-0.045
					c0.321-1.124-0.642-3.853-0.803-4.655C484.05,407.708,485.815,406.584,485.815,405.782z"/>
				<path style="opacity:0.26;" d="M484.041,413.633c-3.04-4.185-7.853-5.973-9.636-6.514l-0.773-1.608
					c-0.146-0.974-0.534-2.376-1.483-3.957c0.984,0.911,2.42,2.108,1.306,0.215c-1.605-2.729-2.729-3.853-4.655-4.495
					c-0.328-0.109-0.618-0.2-0.89-0.283c-0.057-0.043-0.105-0.087-0.164-0.13c-0.3-0.222-0.603-0.408-0.908-0.579
					c1.19-0.267,2.937-0.759,1.481-1.095c-2.087-0.482-3.211-0.963-5.458-0.321c-0.381,0.109-0.809,0.237-1.256,0.373
					c-4.816,0.293-9.533,2.844-12.34-1.573c-1.925-3.031-3.191-8.42-5.755-13.018c1.193,0.904,2.419,1.788,2.335,1.537
					c-0.16-0.482-0.642-3.853-2.568-4.495c-0.897-0.299-1.822-0.665-2.561-0.974c-0.27-0.289-0.554-0.565-0.846-0.833l3.729-1.243
					c0,0-4.174-1.605-6.1-1.605c-0.688,0-1.416,0.063-2.091,0.164c-2.038-0.715-4.456-1.003-7.37-0.681
					c-2.702,0.298-5.097,1.204-7.223,2.488c0.045-0.586,0.21-3.28-0.651-2.132c-0.76,1.013-0.918,2.417-0.952,3.204
					c-0.126,0.093-0.253,0.185-0.377,0.281c-0.779-0.72-2.614-2.717-3.487-1.72c-1.124,1.284,0.161,4.174,0.161,4.174
					s-3.853-1.605-3.692-0.482c0.161,1.124,0.642,2.408,0.642,2.408l-1.605,0.803c0,0-2.247,0.803-2.729,2.247
					c-0.482,1.445,2.568,0.642,3.21,0.642c0.134,0,0.298,0.064,0.471,0.152c-0.532,0.884-1.016,1.768-1.46,2.637
					c-0.92,0.546-1.87,1.193-2.542,1.865c-1.766,1.766-2.087,3.05-2.087,4.013c0,0.415,0.897,0.502,1.916,0.466
					c-0.206,0.586-0.381,1.118-0.528,1.585l-1.228,0.677l-0.6,1.951c-0.483,0.216-0.943,0.429-1.381,0.64
					c-0.305,2.277-2.429,3.768-3.264,5.899c-0.255,0.236-0.499,0.509-0.693,0.821c-0.803,1.284-1.926,1.605-2.087,3.371
					c-0.13,1.432,2.167,0.436,3.04,0.008c0.069,0.155,0.145,0.313,0.228,0.474c-0.131,0.873-0.335,2.436-0.301,3.47
					c0.069-0.147,0.133-0.288,0.187-0.409c0.659,0.565,1.308,1.134,1.899,1.713c0.319-0.45,0.647-0.933,0.928-1.357
					c0.497,0.42,1.02,0.81,1.589,1.142c0.641,1.649,1.508,3.558,2.06,3.466c0.438-0.073,0.976-1.045,1.432-2.081
					c1.161,0.295,2.4,0.469,3.702,0.526c0.292,0.193,0.607,0.389,0.966,0.592c3.692,2.087,4.495,1.926,4.495,1.926l0.208-2.92
					c0.527-0.093,1.063-0.213,1.6-0.335l0.439,0.366l1.292-0.808c3.36-0.943,6.835-2.408,10.225-4.377
					c0.557-0.324,1.119-0.581,1.682-0.808l2.333-0.681c6.794-1.264,13.957,3.299,20.883,7.322c0.066,0.127,0.128,0.236,0.184,0.315
					c0.803,1.124,2.408,4.494,2.408,3.371c0-0.465,0.303-1.177,0.658-1.853c0.562,0.304,1.121,0.593,1.678,0.871
					c0.295,1.263,0.641,2.509,0.874,2.586c0.23,0.077,1.119-0.579,1.985-1.285c0.491,0.197,0.979,0.372,1.465,0.534
					c-0.217,1.392-0.361,2.982,0.082,3.159c0.656,0.263,3.669-1.511,4.749-2.169c0.086,0.009,0.171,0.017,0.255,0.025
					c-0.41,0.832-1.586,3.376-0.509,3.107c0.821-0.205,2.36-1.85,3.366-3.013c0.258-0.011,0.51-0.027,0.755-0.05
					c-0.092,0.795-0.045,1.711,0.694,1.619c0.676-0.085,1.44-1.193,2.013-2.224c0.552-0.214,1.06-0.48,1.528-0.803
					c0.888,1.236,2.471,3.028,3.362,1.582c1.143-1.857,0.761-7.01,0.663-8.123c0.018-0.06,0.037-0.119,0.055-0.179
					C483.172,413.311,483.612,413.548,484.041,413.633z"/>
				
					<line style="fill:none;stroke:#263238;stroke-width:2;stroke-linejoin:round;stroke-miterlimit:10;" x1="455.663" y1="392.842" x2="467.59" y2="377.644"/>
				
					<line style="fill:none;stroke:#263238;stroke-width:2;stroke-linejoin:round;stroke-miterlimit:10;" x1="458.164" y1="389.186" x2="456.048" y2="375.143"/>
				<path style="fill:none;stroke:#263238;stroke-linecap:round;stroke-linejoin:round;stroke-miterlimit:10;" d="M485.815,405.782
					c0-0.254-0.37-1.263-0.875-2.523c1.397-12.058-9.278-16.138-12.141-17.007l-0.773-1.608c-0.146-0.974-0.534-2.376-1.483-3.958
					c0.984,0.911,2.42,2.108,1.306,0.215c-1.605-2.729-2.729-3.853-4.655-4.495c-0.328-0.109-0.618-0.2-0.89-0.283
					c-0.057-0.043-0.105-0.087-0.164-0.13c-0.3-0.222-0.603-0.408-0.909-0.579c1.19-0.267,2.937-0.759,1.481-1.095
					c-2.087-0.482-3.21-0.963-5.458-0.321c-0.381,0.109-0.809,0.237-1.256,0.373c-4.816,0.293-9.533,2.844-12.34-1.573
					c-1.925-3.031-3.191-8.42-5.754-13.018c1.193,0.904,2.418,1.788,2.335,1.537c-0.161-0.481-0.642-3.852-2.568-4.494
					c-0.897-0.299-1.822-0.665-2.561-0.974c-0.27-0.289-0.554-0.565-0.846-0.833l3.729-1.243c0,0-4.173-1.605-6.1-1.605
					c-0.688,0-1.416,0.063-2.091,0.164c-2.038-0.715-4.456-1.003-7.37-0.681c-2.702,0.298-5.097,1.203-7.224,2.488
					c0.045-0.586,0.21-3.279-0.651-2.131c-0.76,1.013-0.918,2.417-0.952,3.204c-0.126,0.093-0.253,0.185-0.377,0.281
					c-0.779-0.72-2.614-2.717-3.487-1.72c-1.124,1.284,0.16,4.174,0.16,4.174s-3.852-1.605-3.692-0.482
					c0.16,1.124,0.642,2.408,0.642,2.408l-1.605,0.803c0,0-2.247,0.803-2.729,2.247c-0.482,1.445,2.568,0.642,3.21,0.642
					c0.134,0,0.298,0.064,0.471,0.152c-0.532,0.884-1.016,1.768-1.46,2.637c-0.92,0.546-1.87,1.194-2.542,1.865
					c-1.766,1.766-2.087,3.05-2.087,4.013c0,0.415,0.897,0.502,1.916,0.466c-0.206,0.586-0.381,1.118-0.528,1.585l-1.228,0.677
					l-0.6,1.951c-7.621,3.409-9.645,6.116-9.134,8.524c-0.499,0.775-1.155,0.989-1.02,3.009c0.16,2.408,3.21,0.642,3.21,0.642
					s-0.482,1.284,0,2.408c0.482,1.124,0.642,2.247,1.124,2.247c0.359,0,1.163-1.693,1.55-2.556
					c1.657,1.421,3.266,2.862,3.991,4.434c1.888,4.1-1.627,5.807-2.76,8.698c-0.255,0.236-0.499,0.509-0.693,0.821
					c-0.803,1.284-1.926,1.605-2.087,3.371c-0.13,1.432,2.167,0.436,3.04,0.008c0.069,0.155,0.145,0.313,0.228,0.474
					c-0.167,1.108-0.456,3.341-0.218,4.172c0.321,1.124,0.161,2.729,0.963,1.926c0.474-0.474,1.339-1.731,1.969-2.682
					c0.497,0.42,1.02,0.81,1.589,1.142c0.641,1.649,1.508,3.558,2.06,3.466c0.438-0.073,0.976-1.045,1.432-2.081
					c1.161,0.295,2.4,0.469,3.702,0.526c0.292,0.193,0.607,0.389,0.966,0.592c3.692,2.087,4.495,1.926,4.495,1.926l0.208-2.92
					c0.527-0.093,1.063-0.213,1.6-0.335l0.439,0.366l1.292-0.808c3.36-0.943,6.835-2.408,10.225-4.377
					c0.557-0.324,1.119-0.581,1.682-0.808l2.333-0.681c6.794-1.264,13.957,3.299,20.883,7.322c0.066,0.127,0.128,0.236,0.184,0.315
					c0.803,1.124,2.408,4.494,2.408,3.371c0-0.465,0.303-1.177,0.658-1.853c0.562,0.304,1.121,0.593,1.678,0.871
					c0.295,1.263,0.641,2.509,0.874,2.586c0.23,0.077,1.119-0.579,1.985-1.285c0.491,0.197,0.979,0.372,1.465,0.534
					c-0.217,1.392-0.361,2.982,0.082,3.159c0.656,0.263,3.669-1.511,4.749-2.169c0.086,0.009,0.171,0.017,0.255,0.025
					c-0.41,0.832-1.586,3.376-0.509,3.107c0.821-0.205,2.36-1.85,3.366-3.013c0.258-0.011,0.51-0.027,0.755-0.05
					c-0.092,0.795-0.045,1.711,0.694,1.619c0.676-0.085,1.44-1.193,2.013-2.224c0.552-0.214,1.06-0.48,1.528-0.803
					c0.888,1.236,2.471,3.028,3.362,1.582c1.143-1.857,0.761-7.01,0.663-8.123c0.018-0.06,0.037-0.119,0.055-0.179
					c0.338,0.198,1.73,0.94,2.012-0.045c0.321-1.124-0.642-3.853-0.803-4.655C484.05,407.708,485.815,406.584,485.815,405.782z"/>
			</g>
			<g>
				<path style="fill:#92E3A9;" d="M489.077,365.528c-0.189-0.399-0.38-0.757-0.57-1.054c-2.448-3.842-6.979-3.364-10.721-5.372
					c-2.051-1.101-2.921-4.278-5.228-7.792c0.242-0.018,0.353-0.215,0.226-0.704c-0.413-1.598-3.961-3.969-5.643-5.018
					c-0.245-0.178-0.498-0.354-0.759-0.529c0.63,0.021,3.592,0.087,2.15-0.608c-1.608-0.775-6.08-1.547-6.08-1.547
					s6.141-2.104,2.66-2.224c-2.709-0.094-5.225,0.671-6.211,1.016c-0.13-0.032-0.259-0.059-0.389-0.088
					c0.167-0.824,0.543-3.395-1.467-2.693c-1.702,0.595-2.66,1.607-3.075,2.142c-0.074-0.002-0.148-0.006-0.221-0.007
					c0.079-1.052,0.188-3.972-1.162-2.869c-1.274,1.04-1.951,2.449-2.189,3.022c-0.067,0.007-0.132,0.017-0.199,0.025
					c-0.351-0.838-1.582-3.621-2.054-2.64c-0.434,0.9-0.856,2.495-1.019,3.146c-0.133,0.029-0.266,0.057-0.397,0.087
					c-1.233-0.762-5.567-3.306-5.341-1.253c0.154,1.399,0.26,2.279,0.322,2.779c-0.224,0.086-0.439,0.171-0.648,0.255
					c-1.291-0.47-3.856-1.335-3.633-0.695c0.297,0.851,0.14,2.339,0.14,2.339s-4.471-2.162-4.625-0.962
					c-0.128,0.995,0.135,1.974,0.229,2.283c-0.075,0.03-0.153,0.058-0.228,0.09c-1.058-0.074-5.009-0.304-4.751,0.434
					c0.186,0.532,0.641,1.194,0.956,1.615c-0.215,0.147-0.422,0.298-0.629,0.451c-1.599,0.072-4.608,0.302-4.218,1.013
					c0.527,0.962,0.527,0.962,0.527,0.962s-2.073-0.596-4.321,1.718c-2.248,2.314-0.29,3.4,0.62,3.272
					c0.911-0.127,0.489,1.671,0.489,1.671s-2.767,1.922-3.72,3.02c-0.954,1.097-2.52,3.173-2.52,3.173s1.54,0.035,2.34,0.137
					c0.8,0.103,1.658,4.196,1.658,4.196l-2-0.256c0,0,0.441,2.902,0.62,3.413c0.178,0.511,0.595,1.702,0.595,1.702
					s-2.935-1.839-2.289-0.537c0.382,0.77,1.125,1.811,1.671,2.536c-0.063,0.298-0.106,0.603-0.123,0.921
					c-1.054,0.127-2.736,0.469-2.163,1.342c0.436,0.664,1.683,1.314,2.752,1.777c0.096,0.253,0.202,0.513,0.325,0.79
					c0.257,0.575,0.612,1.121,1.042,1.635l-0.062,0.301c0,0-1.413,0.876-1.456,1.846c-0.043,0.97,0.135,1.481,1.829,0.316
					c0.533-0.367,0.961-0.675,1.311-0.934c0.222,0.169,0.451,0.334,0.69,0.492c-0.094,0.419-0.142,0.838-0.052,1.098
					c0.238,0.681,0.714,2.043,0.714,2.043s0.949-1.259,1.214-2.094c0.108,0.05,0.218,0.098,0.327,0.146
					c0.504,0.762,1.583,2.292,1.88,1.898c0.247-0.327,0.46-0.678,0.643-1.011c0.509,0.135,1.023,0.246,1.536,0.333l0.74,1.377
					l0.66-1.203c0.464,0.036,0.923,0.051,1.373,0.041l0.699,0.78l0.67-0.887c0.575-0.08,1.127-0.203,1.641-0.376l0.184,0.201
					c1.421-0.306,2.562-0.322,2.562-0.322l0.065-1.818c0,0,0.991-0.079,1.783-0.547c0.472-0.279,0.405-1.319,0.275-2.115
					c0.158-0.185,0.319-0.367,0.483-0.545c0.299,0.149,0.632,0.264,0.86,0.184c0.284-0.099,0.453-0.87,0.546-1.532
					c0.19-0.158,0.386-0.309,0.587-0.455l1.368,1.495l0.514-1.555l0.4-1.21c0.076-0.031,0.153-0.061,0.23-0.091l2.797-0.623
					l0.314,1.991c0,0,1.073-0.757,1.864-1.225c0.299-0.176,0.684-0.573,1.047-0.999c0.367,0.011,0.746,0.03,1.137,0.059
					l-0.005,1.707l2.103-1.484c0.558,0.077,1.141,0.171,1.745,0.28c0.687,1.101,1.755,2.617,2.27,2.313
					c0.392-0.232,0.778-0.883,1.068-1.481c0.237,0.078,0.474,0.155,0.708,0.24c0.116,0.526,0.281,1.038,0.505,1.208
					c0.261,0.197,0.716-0.158,1.104-0.558c0.458,0.201,0.913,0.409,1.358,0.63c0.707,1.523,1.815,3.739,2.447,4.135
					c0.885,0.555,1.499-1.45,1.607-1.837c0.024,0.015,0.049,0.031,0.073,0.046c0.27,0.573,1.539,3.232,2.055,3.733
					c0.578,0.562,2.824,2.069,2.824,2.069l-0.083-2.73c0.335,0.208,0.668,0.413,0.999,0.609c0.619,0.864,1.372,1.87,1.824,2.309
					c0.868,0.843,0.987,1.183,2.357,1.277c1.37,0.094,1.37,0.094,1.37,0.094l-0.057-1.27c0.918,0.213,1.84,0.311,2.775,0.253
					l1.265,0.39l3.821,0.002l-0.852-1.742c0.975-0.57,1.811-1.225,2.536-1.939l0.24,2.626c0,0,1.677-2.305,2.061-3.395
					c0.195-0.554,0.247-1.799,0.251-2.889c0.141-0.308,0.271-0.62,0.388-0.936c0.555,1.283,1.475,3.186,1.616,2.082
					c0.131-1.024-0.413-3.529-0.822-5.203c0.068-0.45,0.122-0.9,0.155-1.351c0.55,0.194,1.269,0.231,1.069-1.037
					c-0.184-1.167-0.677-2.088-1.149-2.816c-0.09-0.828-0.221-1.63-0.385-2.389c0.412-0.44,0.904-0.945,0.864-1.63
					C491.248,367.355,490.29,366.431,489.077,365.528z"/>
				<path style="opacity:0.26;" d="M484.46,386.892c0.23-0.134,0.451-0.274,0.666-0.418c-0.238-0.791-0.606-1.45-0.961-1.999
					c-0.09-0.828-0.221-1.63-0.385-2.389c0.413-0.44,0.904-0.945,0.864-1.63c-0.038-0.661-0.997-1.586-2.209-2.489
					c-0.189-0.399-0.38-0.757-0.569-1.054c-2.448-3.842-6.979-3.364-10.721-5.373c-2.051-1.101-2.921-4.278-5.228-7.792
					c0.242-0.018,0.353-0.215,0.226-0.704c-0.413-1.598-3.961-3.969-5.643-5.018c-0.245-0.178-0.498-0.354-0.759-0.529
					c0.63,0.021,3.592,0.087,2.15-0.608c-1.608-0.775-6.08-1.547-6.08-1.547s6.141-2.104,2.66-2.224
					c-2.709-0.094-5.225,0.671-6.211,1.016c-0.13-0.032-0.259-0.059-0.389-0.088c0.167-0.824,0.543-3.395-1.467-2.693
					c-1.702,0.595-2.66,1.607-3.075,2.142c-0.074-0.002-0.148-0.006-0.221-0.007c0.079-1.052,0.188-3.972-1.163-2.869
					c-1.273,1.04-1.951,2.449-2.189,3.022c-0.067,0.007-0.132,0.017-0.199,0.025c-0.351-0.838-1.582-3.621-2.054-2.64
					c-0.434,0.9-0.856,2.495-1.019,3.146c-0.133,0.029-0.266,0.057-0.397,0.087c-1.233-0.762-5.567-3.306-5.341-1.253
					c0.154,1.399,0.26,2.28,0.322,2.779c-0.224,0.086-0.439,0.171-0.648,0.255c-1.291-0.47-3.856-1.335-3.633-0.695
					c0.297,0.851,0.14,2.339,0.14,2.339s-4.471-2.162-4.625-0.962c-0.127,0.995,0.135,1.974,0.229,2.283
					c-0.075,0.03-0.153,0.058-0.228,0.09c-1.058-0.074-5.009-0.304-4.751,0.434c0.186,0.532,0.641,1.194,0.956,1.615
					c-0.215,0.147-0.422,0.298-0.628,0.451c-1.599,0.072-4.608,0.302-4.218,1.013c0.527,0.962,0.527,0.962,0.527,0.962
					s-1.11-0.314-2.585,0.42c0.453,0.014,1.501,0.052,2.117,0.131c0.8,0.103,1.658,4.196,1.658,4.196l-2-0.256
					c0,0,0.441,2.902,0.62,3.413c0.178,0.511,0.595,1.702,0.595,1.702s-2.935-1.839-2.289-0.537c0.382,0.77,1.125,1.811,1.671,2.536
					c-0.063,0.298-0.106,0.603-0.123,0.921c-1.054,0.127-2.736,0.469-2.163,1.342c0.436,0.664,1.683,1.314,2.752,1.777
					c0.096,0.253,0.202,0.513,0.325,0.79c0.257,0.575,0.612,1.121,1.042,1.635l-0.062,0.301c0,0-1.413,0.876-1.456,1.846
					c-0.043,0.97,0.135,1.481,1.829,0.316c0.533-0.367,0.961-0.675,1.311-0.934c0.222,0.169,0.451,0.334,0.69,0.492
					c-0.094,0.419-0.142,0.838-0.052,1.098c0.238,0.681,0.714,2.043,0.714,2.043s0.949-1.259,1.214-2.094
					c0.108,0.05,0.218,0.098,0.327,0.146c0.504,0.762,1.583,2.292,1.88,1.898c0.247-0.327,0.46-0.678,0.643-1.011
					c0.509,0.135,1.023,0.246,1.536,0.333l0.74,1.377l0.66-1.203c0.464,0.036,0.923,0.051,1.373,0.041l0.699,0.78l0.67-0.887
					c0.575-0.08,1.127-0.203,1.641-0.376l0.184,0.201c1.421-0.306,2.562-0.322,2.562-0.322l0.065-1.818c0,0,0.991-0.079,1.783-0.547
					c0.472-0.279,0.405-1.319,0.275-2.115c0.158-0.185,0.319-0.367,0.483-0.545c0.299,0.149,0.632,0.264,0.86,0.184
					c0.284-0.099,0.453-0.87,0.546-1.532c0.19-0.158,0.386-0.309,0.587-0.455l1.368,1.495l0.514-1.555l0.4-1.21
					c0.076-0.031,0.153-0.061,0.23-0.091l2.797-0.623l0.314,1.991c0,0,1.073-0.757,1.864-1.225c0.299-0.176,0.684-0.573,1.047-0.999
					c0.367,0.011,0.746,0.03,1.137,0.059l-0.005,1.707l2.103-1.484c0.558,0.077,1.141,0.171,1.745,0.28
					c0.687,1.101,1.755,2.617,2.27,2.313c0.392-0.232,0.778-0.883,1.068-1.481c0.237,0.078,0.474,0.155,0.708,0.24
					c0.116,0.526,0.281,1.038,0.505,1.208c0.261,0.197,0.716-0.158,1.104-0.558c0.458,0.201,0.913,0.409,1.358,0.63
					c0.707,1.523,1.815,3.739,2.447,4.135c0.885,0.555,1.499-1.45,1.607-1.837c0.024,0.015,0.049,0.031,0.073,0.046
					c0.27,0.573,1.539,3.232,2.055,3.733c0.578,0.562,2.824,2.069,2.824,2.069l-0.083-2.73c0.335,0.208,0.668,0.413,0.999,0.609
					c0.619,0.864,1.372,1.87,1.824,2.309c0.868,0.843,0.987,1.183,2.357,1.277c1.37,0.094,1.37,0.094,1.37,0.094l-0.057-1.27
					c0.918,0.213,1.84,0.311,2.775,0.253l1.265,0.39l2.717,0.001c0.01-0.102,0.027-0.203,0.035-0.305
					c0.313,0.11,0.681,0.169,0.903-0.034L484.46,386.892z"/>
				<path style="fill:none;stroke:#263238;stroke-miterlimit:10;" d="M489.077,365.528c-0.189-0.399-0.38-0.757-0.57-1.054
					c-2.448-3.842-6.979-3.364-10.721-5.372c-2.051-1.101-2.921-4.278-5.228-7.792c0.242-0.018,0.353-0.215,0.226-0.704
					c-0.413-1.598-3.961-3.969-5.643-5.018c-0.245-0.178-0.498-0.354-0.759-0.529c0.63,0.021,3.592,0.087,2.15-0.608
					c-1.608-0.775-6.08-1.547-6.08-1.547s6.141-2.104,2.66-2.224c-2.709-0.094-5.225,0.671-6.211,1.016
					c-0.13-0.032-0.259-0.059-0.389-0.088c0.167-0.824,0.543-3.395-1.467-2.693c-1.702,0.595-2.66,1.607-3.075,2.142
					c-0.074-0.002-0.148-0.006-0.221-0.007c0.079-1.052,0.188-3.972-1.162-2.869c-1.274,1.04-1.951,2.449-2.189,3.022
					c-0.067,0.007-0.132,0.017-0.199,0.025c-0.351-0.838-1.582-3.621-2.054-2.64c-0.434,0.9-0.856,2.495-1.019,3.146
					c-0.133,0.029-0.266,0.057-0.397,0.087c-1.233-0.762-5.567-3.306-5.341-1.253c0.154,1.399,0.26,2.279,0.322,2.779
					c-0.224,0.086-0.439,0.171-0.648,0.255c-1.291-0.47-3.856-1.335-3.633-0.695c0.297,0.851,0.14,2.339,0.14,2.339
					s-4.471-2.162-4.625-0.962c-0.128,0.995,0.135,1.974,0.229,2.283c-0.075,0.03-0.153,0.058-0.228,0.09
					c-1.058-0.074-5.009-0.304-4.751,0.434c0.186,0.532,0.641,1.194,0.956,1.615c-0.215,0.147-0.422,0.298-0.629,0.451
					c-1.599,0.072-4.608,0.302-4.218,1.013c0.527,0.962,0.527,0.962,0.527,0.962s-2.073-0.596-4.321,1.718
					c-2.248,2.314-0.29,3.4,0.62,3.272c0.911-0.127,0.489,1.671,0.489,1.671s-2.767,1.922-3.72,3.02
					c-0.954,1.097-2.52,3.173-2.52,3.173s1.54,0.035,2.34,0.137c0.8,0.103,1.658,4.196,1.658,4.196l-2-0.256
					c0,0,0.441,2.902,0.62,3.413c0.178,0.511,0.595,1.702,0.595,1.702s-2.935-1.839-2.289-0.537c0.382,0.77,1.125,1.811,1.671,2.536
					c-0.063,0.298-0.106,0.603-0.123,0.921c-1.054,0.127-2.736,0.469-2.163,1.342c0.436,0.664,1.683,1.314,2.752,1.777
					c0.096,0.253,0.202,0.513,0.325,0.79c0.257,0.575,0.612,1.121,1.042,1.635l-0.062,0.301c0,0-1.413,0.876-1.456,1.846
					c-0.043,0.97,0.135,1.481,1.829,0.316c0.533-0.367,0.961-0.675,1.311-0.934c0.222,0.169,0.451,0.334,0.69,0.492
					c-0.094,0.419-0.142,0.838-0.052,1.098c0.238,0.681,0.714,2.043,0.714,2.043s0.949-1.259,1.214-2.094
					c0.108,0.05,0.218,0.098,0.327,0.146c0.504,0.762,1.583,2.292,1.88,1.898c0.247-0.327,0.46-0.678,0.643-1.011
					c0.509,0.135,1.023,0.246,1.536,0.333l0.74,1.377l0.66-1.203c0.464,0.036,0.923,0.051,1.373,0.041l0.699,0.78l0.67-0.887
					c0.575-0.08,1.127-0.203,1.641-0.376l0.184,0.201c1.421-0.306,2.562-0.322,2.562-0.322l0.065-1.818c0,0,0.991-0.079,1.783-0.547
					c0.472-0.279,0.405-1.319,0.275-2.115c0.158-0.185,0.319-0.367,0.483-0.545c0.299,0.149,0.632,0.264,0.86,0.184
					c0.284-0.099,0.453-0.87,0.546-1.532c0.19-0.158,0.386-0.309,0.587-0.455l1.368,1.495l0.514-1.555l0.4-1.21
					c0.076-0.031,0.153-0.061,0.23-0.091l2.797-0.623l0.314,1.991c0,0,1.073-0.757,1.864-1.225c0.299-0.176,0.684-0.573,1.047-0.999
					c0.367,0.011,0.746,0.03,1.137,0.059l-0.005,1.707l2.103-1.484c0.558,0.077,1.141,0.171,1.745,0.28
					c0.687,1.101,1.755,2.617,2.27,2.313c0.392-0.232,0.778-0.883,1.068-1.481c0.237,0.078,0.474,0.155,0.708,0.24
					c0.116,0.526,0.281,1.038,0.505,1.208c0.261,0.197,0.716-0.158,1.104-0.558c0.458,0.201,0.913,0.409,1.358,0.63
					c0.707,1.523,1.815,3.739,2.447,4.135c0.885,0.555,1.499-1.45,1.607-1.837c0.024,0.015,0.049,0.031,0.073,0.046
					c0.27,0.573,1.539,3.232,2.055,3.733c0.578,0.562,2.824,2.069,2.824,2.069l-0.083-2.73c0.335,0.208,0.668,0.413,0.999,0.609
					c0.619,0.864,1.372,1.87,1.824,2.309c0.868,0.843,0.987,1.183,2.357,1.277c1.37,0.094,1.37,0.094,1.37,0.094l-0.057-1.27
					c0.918,0.213,1.84,0.311,2.775,0.253l1.265,0.39l3.821,0.002l-0.852-1.742c0.975-0.57,1.811-1.225,2.536-1.939l0.24,2.626
					c0,0,1.677-2.305,2.061-3.395c0.195-0.554,0.247-1.799,0.251-2.889c0.141-0.308,0.271-0.62,0.388-0.936
					c0.555,1.283,1.475,3.186,1.616,2.082c0.131-1.024-0.413-3.529-0.822-5.203c0.068-0.45,0.122-0.9,0.155-1.351
					c0.55,0.194,1.269,0.231,1.069-1.037c-0.184-1.167-0.677-2.088-1.149-2.816c-0.09-0.828-0.221-1.63-0.385-2.389
					c0.412-0.44,0.904-0.945,0.864-1.63C491.248,367.355,490.29,366.431,489.077,365.528z"/>
			</g>
			<g>
				<path style="fill:#92E3A9;" d="M440.288,424.255c0.13-0.209,0.259-0.394,0.383-0.546c1.6-1.966,4.073-1.41,6.271-2.279
					c1.204-0.476,1.889-2.176,3.39-3.969c-0.133-0.026-0.181-0.141-0.08-0.403c0.331-0.856,2.444-1.939,3.441-2.41
					c0.147-0.083,0.298-0.164,0.454-0.244c-0.35-0.029-1.991-0.183-1.149-0.474c0.939-0.325,3.459-0.464,3.459-0.464
					s-3.258-1.558-1.327-1.4c1.503,0.122,2.844,0.707,3.367,0.961c0.074-0.009,0.147-0.016,0.22-0.024
					c-0.039-0.466-0.082-1.911,0.984-1.394c0.902,0.438,1.367,1.059,1.561,1.381c0.041,0.004,0.082,0.006,0.123,0.01
					c0.024-0.586,0.152-2.207,0.827-1.51c0.637,0.657,0.921,1.479,1.015,1.811c0.037,0.008,0.072,0.018,0.108,0.026
					c0.248-0.441,1.107-1.899,1.305-1.327c0.182,0.525,0.313,1.434,0.361,1.804c0.072,0.024,0.143,0.049,0.214,0.074
					c0.73-0.342,3.289-1.469,3.032-0.349c-0.175,0.763-0.29,1.243-0.357,1.515c0.118,0.062,0.232,0.123,0.342,0.182
					c0.743-0.177,2.217-0.49,2.052-0.151c-0.219,0.451-0.228,1.284-0.228,1.284s2.61-0.907,2.618-0.234
					c0.006,0.558-0.201,1.082-0.273,1.247c0.04,0.022,0.081,0.042,0.12,0.064c0.59,0.027,2.788,0.155,2.598,0.546
					c-0.137,0.282-0.431,0.618-0.632,0.831c0.109,0.095,0.214,0.192,0.318,0.29c0.879,0.143,2.527,0.463,2.266,0.831
					c-0.353,0.498-0.353,0.498-0.353,0.498s1.184-0.196,2.277,1.227c1.093,1.423-0.058,1.897-0.553,1.768
					c-0.495-0.129-0.378,0.892-0.378,0.892s1.405,1.24,1.862,1.908c0.456,0.668,1.189,1.916,1.189,1.916s-0.853-0.08-1.302-0.075
					c-0.449,0.005-1.186,2.212-1.186,2.212l1.122-0.013c0,0-0.431,1.575-0.562,1.846c-0.132,0.271-0.438,0.902-0.438,0.902
					s1.74-0.828,1.299-0.15c-0.261,0.401-0.738,0.929-1.086,1.294c0.016,0.169,0.02,0.34,0.009,0.517
					c0.574,0.138,1.482,0.435,1.109,0.881c-0.284,0.339-1.015,0.618-1.635,0.805c-0.069,0.133-0.144,0.271-0.23,0.416
					c-0.179,0.301-0.41,0.58-0.681,0.837l0.015,0.17c0,0,0.724,0.575,0.686,1.114c-0.039,0.539-0.17,0.81-1.031,0.057
					c-0.271-0.237-0.488-0.435-0.664-0.6c-0.134,0.079-0.271,0.156-0.413,0.228c0.025,0.238,0.025,0.472-0.042,0.61
					c-0.175,0.361-0.526,1.083-0.526,1.083s-0.443-0.757-0.536-1.235c-0.063,0.021-0.127,0.04-0.19,0.06
					c-0.328,0.389-1.022,1.165-1.161,0.928c-0.115-0.196-0.211-0.405-0.29-0.6c-0.29,0.042-0.581,0.07-0.87,0.085l-0.497,0.714
					l-0.287-0.707c-0.259-0.01-0.513-0.031-0.761-0.065l-0.437,0.386l-0.313-0.533c-0.313-0.081-0.61-0.185-0.882-0.313
					l-0.114,0.099c-0.766-0.26-1.395-0.343-1.395-0.343l0.081-1.009c0,0-0.543-0.108-0.95-0.417
					c-0.243-0.185-0.139-0.755-0.016-1.186c-0.076-0.113-0.153-0.223-0.232-0.332c-0.175,0.063-0.366,0.105-0.487,0.046
					c-0.151-0.073-0.194-0.51-0.203-0.882c-0.095-0.099-0.193-0.195-0.295-0.289l-0.852,0.738l-0.184-0.893l-0.143-0.694
					c-0.04-0.022-0.081-0.044-0.122-0.065l-1.505-0.524l-0.302,1.08c0,0-0.544-0.487-0.951-0.797
					c-0.154-0.117-0.341-0.361-0.514-0.62c-0.203-0.018-0.414-0.031-0.632-0.041l-0.107,0.944l-1.067-0.956
					c-0.314,0.007-0.641,0.021-0.982,0.043c-0.45,0.564-1.138,1.333-1.403,1.132c-0.202-0.153-0.373-0.538-0.495-0.887
					c-0.136,0.028-0.272,0.055-0.407,0.087c-0.098,0.283-0.222,0.556-0.357,0.635c-0.157,0.092-0.386-0.133-0.574-0.38
					c-0.266,0.082-0.531,0.167-0.791,0.261c-0.489,0.796-1.243,1.949-1.618,2.127c-0.525,0.25-0.735-0.898-0.77-1.118
					c-0.014,0.007-0.029,0.014-0.043,0.021c-0.186,0.299-1.059,1.687-1.376,1.931c-0.356,0.273-1.694,0.962-1.694,0.962l0.221-1.503
					c-0.198,0.094-0.396,0.185-0.591,0.272c-0.398,0.438-0.878,0.945-1.156,1.159c-0.534,0.41-0.621,0.591-1.385,0.554
					c-0.763-0.036-0.763-0.036-0.763-0.036l0.113-0.698c-0.521,0.058-1.037,0.053-1.55-0.039l-0.724,0.134l-2.112-0.245l0.583-0.908
					c-0.502-0.378-0.922-0.793-1.276-1.235l-0.302,1.436c0,0-0.779-1.382-0.921-2.009c-0.072-0.319-0.021-1.01,0.047-1.613
					c-0.058-0.179-0.11-0.36-0.154-0.542c-0.389,0.673-1.02,1.666-1.027,1.046c-0.007-0.574,0.455-1.924,0.789-2.822
					c-0.008-0.253-0.009-0.505,0.001-0.756c-0.316,0.072-0.716,0.046-0.524-0.642c0.177-0.633,0.509-1.111,0.816-1.482
					c0.103-0.452,0.227-0.886,0.366-1.295c-0.2-0.27-0.439-0.58-0.373-0.956C438.971,425.125,439.56,424.676,440.288,424.255z"/>
				<path style="opacity:0.26;" d="M441.466,436.358c-0.118-0.089-0.232-0.181-0.341-0.274c0.183-0.422,0.428-0.763,0.66-1.043
					c0.103-0.452,0.227-0.886,0.366-1.295c-0.2-0.27-0.439-0.58-0.373-0.956c0.064-0.363,0.653-0.812,1.381-1.233
					c0.13-0.209,0.259-0.394,0.383-0.546c1.6-1.966,4.073-1.41,6.27-2.279c1.204-0.477,1.889-2.176,3.39-3.969
					c-0.133-0.026-0.181-0.142-0.08-0.404c0.331-0.856,2.444-1.939,3.441-2.41c0.147-0.083,0.298-0.164,0.453-0.243
					c-0.349-0.029-1.991-0.183-1.149-0.474c0.938-0.325,3.459-0.464,3.459-0.464s-3.258-1.557-1.327-1.4
					c1.503,0.122,2.844,0.707,3.367,0.961c0.074-0.009,0.147-0.016,0.22-0.024c-0.039-0.466-0.082-1.911,0.984-1.394
					c0.902,0.438,1.367,1.059,1.562,1.381c0.041,0.004,0.082,0.006,0.123,0.01c0.024-0.586,0.152-2.207,0.827-1.51
					c0.637,0.657,0.921,1.479,1.015,1.811c0.037,0.008,0.072,0.018,0.109,0.026c0.248-0.44,1.107-1.899,1.305-1.327
					c0.182,0.525,0.313,1.434,0.361,1.804c0.072,0.024,0.143,0.049,0.214,0.074c0.73-0.342,3.289-1.469,3.032-0.349
					c-0.175,0.763-0.29,1.243-0.357,1.515c0.118,0.062,0.232,0.122,0.342,0.182c0.743-0.177,2.217-0.49,2.052-0.151
					c-0.219,0.451-0.228,1.284-0.228,1.284s2.61-0.907,2.618-0.234c0.007,0.558-0.201,1.082-0.273,1.247
					c0.04,0.022,0.081,0.042,0.12,0.064c0.589,0.027,2.787,0.155,2.598,0.546c-0.137,0.282-0.431,0.618-0.632,0.831
					c0.109,0.095,0.214,0.192,0.318,0.29c0.879,0.143,2.527,0.463,2.266,0.831c-0.353,0.498-0.353,0.498-0.353,0.498
					s0.634-0.102,1.402,0.398c-0.251-0.022-0.833-0.068-1.178-0.064c-0.449,0.005-1.186,2.212-1.186,2.212l1.122-0.013
					c0,0-0.431,1.575-0.562,1.846c-0.132,0.271-0.438,0.902-0.438,0.902s1.74-0.828,1.299-0.15
					c-0.261,0.401-0.738,0.929-1.086,1.294c0.016,0.169,0.02,0.34,0.009,0.517c0.574,0.138,1.482,0.435,1.109,0.881
					c-0.284,0.339-1.015,0.618-1.635,0.805c-0.069,0.133-0.144,0.271-0.23,0.416c-0.179,0.301-0.41,0.58-0.681,0.837l0.015,0.17
					c0,0,0.724,0.575,0.686,1.114c-0.039,0.539-0.17,0.81-1.031,0.057c-0.271-0.237-0.488-0.435-0.664-0.6
					c-0.134,0.079-0.271,0.156-0.413,0.228c0.025,0.238,0.025,0.472-0.042,0.61c-0.175,0.361-0.526,1.083-0.526,1.083
					s-0.443-0.757-0.536-1.235c-0.063,0.021-0.127,0.04-0.19,0.06c-0.328,0.389-1.022,1.165-1.161,0.928
					c-0.115-0.196-0.211-0.405-0.29-0.6c-0.29,0.042-0.581,0.07-0.87,0.085l-0.497,0.714l-0.287-0.707
					c-0.259-0.01-0.513-0.031-0.761-0.065l-0.437,0.386l-0.313-0.533c-0.313-0.081-0.61-0.185-0.882-0.313l-0.114,0.099
					c-0.766-0.26-1.395-0.343-1.395-0.343l0.081-1.009c0,0-0.543-0.108-0.95-0.417c-0.243-0.185-0.139-0.755-0.016-1.186
					c-0.076-0.113-0.153-0.223-0.232-0.332c-0.175,0.063-0.366,0.105-0.487,0.046c-0.151-0.073-0.194-0.51-0.203-0.882
					c-0.095-0.099-0.193-0.195-0.295-0.289l-0.852,0.738l-0.184-0.893l-0.143-0.694c-0.04-0.022-0.081-0.044-0.122-0.065
					l-1.505-0.524l-0.302,1.08c0,0-0.544-0.487-0.951-0.797c-0.154-0.117-0.341-0.361-0.514-0.62
					c-0.203-0.018-0.414-0.031-0.632-0.041l-0.107,0.944l-1.067-0.956c-0.314,0.007-0.641,0.021-0.982,0.043
					c-0.45,0.564-1.138,1.333-1.403,1.132c-0.202-0.153-0.373-0.538-0.495-0.887c-0.136,0.028-0.272,0.055-0.407,0.087
					c-0.098,0.283-0.222,0.556-0.357,0.635c-0.157,0.092-0.386-0.133-0.574-0.38c-0.266,0.082-0.531,0.167-0.791,0.261
					c-0.489,0.796-1.243,1.949-1.618,2.127c-0.525,0.25-0.735-0.898-0.77-1.118c-0.014,0.007-0.029,0.014-0.043,0.021
					c-0.186,0.299-1.059,1.687-1.376,1.931c-0.356,0.273-1.694,0.962-1.694,0.962l0.221-1.503c-0.198,0.094-0.396,0.185-0.591,0.272
					c-0.398,0.438-0.878,0.945-1.156,1.159c-0.534,0.41-0.621,0.591-1.385,0.554c-0.763-0.036-0.763-0.036-0.763-0.036l0.113-0.698
					c-0.521,0.058-1.037,0.053-1.55-0.039l-0.724,0.134l-1.502-0.174c0.001-0.057-0.002-0.114,0-0.171
					c-0.18,0.041-0.387,0.049-0.497-0.077L441.466,436.358z"/>
				<path style="fill:none;stroke:#263238;stroke-miterlimit:10;" d="M440.288,424.255c0.13-0.209,0.259-0.394,0.383-0.546
					c1.6-1.966,4.073-1.41,6.271-2.279c1.204-0.476,1.889-2.176,3.39-3.969c-0.133-0.026-0.181-0.141-0.08-0.403
					c0.331-0.856,2.444-1.939,3.441-2.41c0.147-0.083,0.298-0.164,0.454-0.244c-0.35-0.029-1.991-0.183-1.149-0.474
					c0.939-0.325,3.459-0.464,3.459-0.464s-3.258-1.558-1.327-1.4c1.503,0.122,2.844,0.707,3.367,0.961
					c0.074-0.009,0.147-0.016,0.22-0.024c-0.039-0.466-0.082-1.911,0.984-1.394c0.902,0.438,1.367,1.059,1.561,1.381
					c0.041,0.004,0.082,0.006,0.123,0.01c0.024-0.586,0.152-2.207,0.827-1.51c0.637,0.657,0.921,1.479,1.015,1.811
					c0.037,0.008,0.072,0.018,0.108,0.026c0.248-0.441,1.107-1.899,1.305-1.327c0.182,0.525,0.313,1.434,0.361,1.804
					c0.072,0.024,0.143,0.049,0.214,0.074c0.73-0.342,3.289-1.469,3.032-0.349c-0.175,0.763-0.29,1.243-0.357,1.515
					c0.118,0.062,0.232,0.123,0.342,0.182c0.743-0.177,2.217-0.49,2.052-0.151c-0.219,0.451-0.228,1.284-0.228,1.284
					s2.61-0.907,2.618-0.234c0.006,0.558-0.201,1.082-0.273,1.247c0.04,0.022,0.081,0.042,0.12,0.064
					c0.59,0.027,2.788,0.155,2.598,0.546c-0.137,0.282-0.431,0.618-0.632,0.831c0.109,0.095,0.214,0.192,0.318,0.29
					c0.879,0.143,2.527,0.463,2.266,0.831c-0.353,0.498-0.353,0.498-0.353,0.498s1.184-0.196,2.277,1.227
					c1.093,1.423-0.058,1.897-0.553,1.768c-0.495-0.129-0.378,0.892-0.378,0.892s1.405,1.24,1.862,1.908
					c0.456,0.668,1.189,1.916,1.189,1.916s-0.853-0.08-1.302-0.075c-0.449,0.005-1.186,2.212-1.186,2.212l1.122-0.013
					c0,0-0.431,1.575-0.562,1.846c-0.132,0.271-0.438,0.902-0.438,0.902s1.74-0.828,1.299-0.15
					c-0.261,0.401-0.738,0.929-1.086,1.294c0.016,0.169,0.02,0.34,0.009,0.517c0.574,0.138,1.482,0.435,1.109,0.881
					c-0.284,0.339-1.015,0.618-1.635,0.805c-0.069,0.133-0.144,0.271-0.23,0.416c-0.179,0.301-0.41,0.58-0.681,0.837l0.015,0.17
					c0,0,0.724,0.575,0.686,1.114c-0.039,0.539-0.17,0.81-1.031,0.057c-0.271-0.237-0.488-0.435-0.664-0.6
					c-0.134,0.079-0.271,0.156-0.413,0.228c0.025,0.238,0.025,0.472-0.042,0.61c-0.175,0.361-0.526,1.083-0.526,1.083
					s-0.443-0.757-0.536-1.235c-0.063,0.021-0.127,0.04-0.19,0.06c-0.328,0.389-1.022,1.165-1.161,0.928
					c-0.115-0.196-0.211-0.405-0.29-0.6c-0.29,0.042-0.581,0.07-0.87,0.085l-0.497,0.714l-0.287-0.707
					c-0.259-0.01-0.513-0.031-0.761-0.065l-0.437,0.386l-0.313-0.533c-0.313-0.081-0.61-0.185-0.882-0.313l-0.114,0.099
					c-0.766-0.26-1.395-0.343-1.395-0.343l0.081-1.009c0,0-0.543-0.108-0.95-0.417c-0.243-0.185-0.139-0.755-0.016-1.186
					c-0.076-0.113-0.153-0.223-0.232-0.332c-0.175,0.063-0.366,0.105-0.487,0.046c-0.151-0.073-0.194-0.51-0.203-0.882
					c-0.095-0.099-0.193-0.195-0.295-0.289l-0.852,0.738l-0.184-0.893l-0.143-0.694c-0.04-0.022-0.081-0.044-0.122-0.065
					l-1.505-0.524l-0.302,1.08c0,0-0.544-0.487-0.951-0.797c-0.154-0.117-0.341-0.361-0.514-0.62
					c-0.203-0.018-0.414-0.031-0.632-0.041l-0.107,0.944l-1.067-0.956c-0.314,0.007-0.641,0.021-0.982,0.043
					c-0.45,0.564-1.138,1.333-1.403,1.132c-0.202-0.153-0.373-0.538-0.495-0.887c-0.136,0.028-0.272,0.055-0.407,0.087
					c-0.098,0.283-0.222,0.556-0.357,0.635c-0.157,0.092-0.386-0.133-0.574-0.38c-0.266,0.082-0.531,0.167-0.791,0.261
					c-0.489,0.796-1.243,1.949-1.618,2.127c-0.525,0.25-0.735-0.898-0.77-1.118c-0.014,0.007-0.029,0.014-0.043,0.021
					c-0.186,0.299-1.059,1.687-1.376,1.931c-0.356,0.273-1.694,0.962-1.694,0.962l0.221-1.503c-0.198,0.094-0.396,0.185-0.591,0.272
					c-0.398,0.438-0.878,0.945-1.156,1.159c-0.534,0.41-0.621,0.591-1.385,0.554c-0.763-0.036-0.763-0.036-0.763-0.036l0.113-0.698
					c-0.521,0.058-1.037,0.053-1.55-0.039l-0.724,0.134l-2.112-0.245l0.583-0.908c-0.502-0.378-0.922-0.793-1.276-1.235
					l-0.302,1.436c0,0-0.779-1.382-0.921-2.009c-0.072-0.319-0.021-1.01,0.047-1.613c-0.058-0.179-0.11-0.36-0.154-0.542
					c-0.389,0.673-1.02,1.666-1.027,1.046c-0.007-0.574,0.455-1.924,0.789-2.822c-0.008-0.253-0.009-0.505,0.001-0.756
					c-0.316,0.072-0.716,0.046-0.524-0.642c0.177-0.633,0.509-1.111,0.816-1.482c0.103-0.452,0.227-0.886,0.366-1.295
					c-0.2-0.27-0.439-0.58-0.373-0.956C438.971,425.125,439.56,424.676,440.288,424.255z"/>
			</g>
		</g>
		<path style="fill:#92E3A9;stroke:#263238;stroke-linecap:round;stroke-linejoin:round;stroke-miterlimit:10;" d="M422.388,450.514
			l-4.082-0.48l2.642,2.401l-5.003,1.201h44.785l-1.361-0.48l1.201-1.921l-7.204,1.681l1.201-3.602l-5.523,1.441l2.882-3.122
			l-2.161-0.24l-5.283,1.201l1.201-2.401l-4.803,1.681l2.401-4.082l-3.122,0.48l-4.803,4.082l-1.441-5.763l-1.681,6.003
			l-1.441-4.082l-0.961,4.323l-4.082-3.122l1.201,3.842c0,0-2.882-2.401-3.842-2.882c-0.96-0.48-5.043-2.401-5.043-2.401
			s1.681,2.161,2.641,3.842C421.667,449.794,422.388,450.514,422.388,450.514z"/>
	</g>
</g>
</svg>
